<svg width="47" height="40" viewBox="0 0 47 40" fill="none" xmlns="http://www.w3.org/2000/svg">
<path d="M22.6749 1.64024C32.9429 1.14637 41.667 9.06711 42.1602 19.3312C42.6534 29.5952 34.7288 38.3154 24.4608 38.8072C14.194 39.2995 5.47194 31.379 4.97886 21.1164C4.48572 10.8536 12.4083 2.13412 22.6749 1.64024Z" fill="#121112"/>
<path d="M22.7697 2.57515C32.5032 2.13846 40.7522 9.66317 41.2054 19.3924C41.6586 29.1216 34.1449 37.3799 24.4128 37.8493C14.6576 38.3196 6.37218 30.787 5.91791 21.0349C5.46364 11.2826 13.013 3.01292 22.7697 2.57515Z" fill="#FEFEFE"/>
<path d="M38.9861 26.4936L39.021 26.5067L39.0369 26.5816C38.2619 28.3556 37.4311 29.7327 36.1595 31.1984C33.2246 34.5746 29.0585 36.6345 24.5928 36.9172C20.1552 37.2307 15.806 35.6205 12.4686 32.7211C11.8027 32.1286 10.7627 31.0753 10.2852 30.3308C10.9203 30.2133 11.5866 30.0018 12.2248 29.8619C13.7493 29.5282 15.281 29.2021 16.8042 28.8652L22.4971 27.6031L24.8933 27.0692C25.6083 26.9049 26.7943 26.4884 27.4179 26.9573C28.0802 27.4552 27.3995 29.1211 28.6903 28.9943C31.8674 28.6827 34.9167 27.4346 37.9988 26.6555C38.3372 26.5699 38.6521 26.5301 38.9861 26.4936Z" fill="#121112"/>
<path d="M24.7828 29.6527C25.3329 29.6223 25.8044 29.6874 25.9976 30.2873C26.2625 31.1099 26.2541 32.4347 25.3037 32.7712C25.1107 32.7819 24.8032 32.8039 24.6311 32.7206C23.8184 32.3271 23.8404 30.8877 24.1754 30.1834C24.3225 29.8745 24.4728 29.7594 24.7828 29.6527Z" fill="#FEFEFE"/>
<path d="M24.933 29.7655C25.0296 29.7861 25.1895 29.817 25.2448 29.8989C25.6353 30.4791 25.6189 32.174 25.1166 32.6425C24.319 32.5788 24.4978 30.284 24.933 29.7655Z" fill="#121112"/>
<path d="M21.801 29.6569C22.1434 29.6331 22.4332 29.6471 22.7763 29.6598C24.4589 30.9592 22.5038 33.3126 21.7029 32.7075C22.0197 32.5685 22.8979 31.8568 22.7576 31.4871C22.659 31.4398 21.9356 31.4796 21.7322 31.474C20.8658 30.9284 20.9494 30.1647 21.801 29.6569Z" fill="#FEFEFE"/>
<path d="M22.2097 29.728C22.7995 29.8796 22.9428 30.6312 22.743 31.1384C22.591 31.2746 22.6068 31.2362 22.3746 31.2783C21.5424 31.0696 21.5285 30.042 22.2097 29.728Z" fill="#121112"/>
<path d="M23.5668 32.9569C23.6666 33.0271 23.8961 33.9003 23.95 34.0851C24.4003 34.0987 24.7926 34.0912 25.2404 34.0781C24.8222 34.4108 24.6619 34.5746 24.1731 34.8006C24.349 35.1858 24.4725 35.6261 24.5948 36.0337C24.2843 35.8409 23.8977 35.4983 23.6085 35.2564C23.5382 35.2793 22.7172 35.8924 22.5494 35.9934C22.7073 35.5873 22.8121 35.1872 22.9185 34.7655C22.4529 34.5461 22.3185 34.4183 21.9219 34.0936L23.2347 34.0781C23.3115 33.7552 23.4715 33.3163 23.5668 32.9569Z" fill="#FEFEFE"/>
<path d="M27.4898 29.6597L27.5876 29.6541C27.5967 29.6733 27.4803 32.0439 27.7013 32.7463C27.4376 32.7487 27.1135 32.7618 26.8566 32.7295C27.0256 32.1885 27.1111 30.7557 26.9621 30.2498C26.8598 30.0893 26.6414 30.0032 26.4668 29.9134C26.8097 29.8366 27.1508 29.7519 27.4898 29.6597Z" fill="#FEFEFE"/>
<path d="M20.5944 29.6186C20.5824 29.5952 20.3893 32.0009 20.686 32.7393C20.5049 32.7412 20.0131 32.7744 19.8725 32.7141L19.8839 32.6364C19.987 32.182 20.0628 30.6116 19.9065 30.2119C19.8014 30.0627 19.6168 30.0102 19.4453 29.941C19.8214 29.8277 20.2148 29.7239 20.5944 29.6186Z" fill="#FEFEFE"/>
<path d="M39.8642 20.1697L40.304 20.1323C40.2999 21.3798 40.1598 22.2708 39.9515 23.4945C39.0393 23.7107 38.0968 23.844 37.1961 24.1019C34.5564 24.8581 31.9757 25.882 29.2257 26.1693C28.9663 26.1964 28.6406 26.2395 28.3837 26.1871C27.3026 25.9662 27.8995 24.5418 27.2759 24.0967C26.8906 23.8216 24.4028 24.546 23.7451 24.6456C23.6166 24.6625 23.576 24.6723 23.4461 24.6461C23.3919 24.5052 23.4318 21.5417 23.4369 21.1861C23.8793 21.0911 24.3226 21.0003 24.7667 20.9137C25.4024 20.7907 26.0728 20.6447 26.7166 20.5759C27.1933 20.5253 27.4825 20.6667 27.8621 20.9226C27.9976 21.3878 27.9248 22.2993 28.2924 22.6189C29.1666 23.3789 35.2106 21.3176 36.4334 20.9671C37.5337 20.6512 38.7259 20.2759 39.8642 20.1697Z" fill="#121112"/>
<path d="M39.0905 14.0825L39.1329 14.1048C39.5765 15.1408 39.7382 16.2167 40.0145 17.2701C39.6929 17.3603 39.3667 17.4399 39.0377 17.5044C35.6585 18.1667 32.4813 19.7378 29.0098 19.9605C28.5347 19.9909 28.3483 19.8225 27.9993 19.5454C27.9105 19.2095 27.8977 18.8197 27.8614 18.4681C27.7427 17.3175 26.3116 17.9161 25.6145 18.0912C25.0791 18.2256 24.6149 18.3482 24.0729 18.4439L23.4102 18.5875C23.4714 17.5623 23.4315 16.132 23.4226 15.087C23.9222 15.0141 24.4276 14.8418 24.9202 14.7252C25.6298 14.5572 27.2004 14.0594 27.8316 14.4657C28.3597 14.8057 28.2431 15.4667 28.3672 15.9903C28.4067 16.1569 28.4828 16.3167 28.6349 16.407C29.6532 17.0114 35.3512 15.1103 36.6668 14.7228C37.4662 14.4873 38.2843 14.2947 39.0905 14.0825Z" fill="#121112"/>
<path d="M27.1231 8.04706C27.3298 8.01323 27.5841 8.0312 27.7971 8.0378C27.8803 8.08819 28.2131 8.28576 28.2627 8.3399C29.0033 9.14758 27.8708 10.3371 29.7067 10.2194C31.3689 10.1129 33.0974 9.5707 34.701 9.11398C35.0552 9.01309 35.4326 8.94781 35.7752 8.78693C36.5441 9.58568 37.2362 10.5991 37.864 11.5096C36.5445 11.8856 35.2252 12.3852 33.8636 12.7286C32.3149 13.1229 31.0519 13.5684 29.4114 13.6668C27.7209 13.7681 28.4194 12.2568 27.8221 11.5849C27.53 11.2564 25.2231 11.9321 24.6996 12.008C24.364 12.0566 23.8208 12.1458 23.4141 12.1918C23.4488 11.0531 23.4291 9.84693 23.4267 8.70163C24.6263 8.51431 25.9094 8.24762 27.1231 8.04706Z" fill="#121112"/>
<path d="M19.7317 10.963C19.8105 10.9677 19.8888 10.9781 19.9661 10.9938C20.3733 11.0813 20.7841 11.5639 21.0017 11.9062C20.1507 12.8565 19.4133 13.9626 18.5545 14.9201C18.0014 15.5367 17.3234 15.9307 16.7873 16.521C16.3234 17.0317 15.8636 17.7962 15.359 18.2693C15.5958 18.4443 15.8637 18.6572 16.0903 18.8468C17.6741 20.172 19.4306 21.4042 20.9731 22.7654C20.8037 23.0654 20.7193 23.1711 20.4877 23.4098C20.0167 23.1168 18.6672 21.9849 18.1494 21.5642C17.0962 20.7088 15.8539 19.7996 14.863 18.9105L14.8533 18.9259C14.4107 19.6231 13.8005 20.3195 13.2922 20.9849C12.0949 22.5525 10.7779 24.0991 9.61974 25.692C9.49246 25.845 9.46198 25.8904 9.28807 25.984C9.09614 25.9975 9.17366 26.0111 8.99376 25.9236C8.95809 25.8679 8.92542 25.8333 8.91282 25.7743C8.88062 25.6241 8.98646 25.3939 9.07821 25.2694C9.51952 24.6709 10.0292 24.0958 10.4855 23.5066C11.7629 21.845 13.0542 20.1945 14.3593 18.5544C13.1505 17.5709 12.9911 17.3128 11.5226 16.87C11.0928 16.7403 9.21589 15.2211 8.79102 14.8221C8.9029 14.5822 9.66791 13.2022 9.95684 13.3467C10.4545 13.6232 12.2329 14.9117 12.5014 15.3565C13.2997 16.6796 13.6373 16.9077 14.864 17.883C15.1164 17.6366 16.3609 16.0371 16.4771 15.7634C17.2976 13.8315 18.4218 12.5976 19.7317 10.963Z" fill="#121112"/>
<path d="M9.43515 14.0449C9.41081 14.037 12.339 16.3731 12.5293 16.5237L18.1266 20.9676C18.5082 21.2717 20.4125 22.7009 20.5365 23.0106L20.4901 23.0794L20.3735 23.0092C20.097 22.8408 19.8655 22.6508 19.6141 22.4496C17.4844 20.743 15.357 19.0331 13.2159 17.3412C12.7235 16.936 11.9894 16.888 11.457 16.5696C10.6045 16.0599 9.792 15.3493 9.01758 14.7285C9.17571 14.4015 9.20385 14.3281 9.43515 14.0449Z" fill="#FEFEFE"/>
<path d="M20.2957 11.4395C20.4852 11.5263 20.6256 11.716 20.7656 11.8756C20.0377 12.6976 19.3127 13.7826 18.5793 14.6328C17.9669 15.3427 17.4126 15.6149 16.8068 16.2292C16.3043 16.7387 15.8867 17.436 15.3424 18.0051C15.2702 18.0873 15.2651 18.0874 15.1592 18.1242L15.1094 18.0854C15.1537 17.8982 19.8 12.059 20.2957 11.4395Z" fill="#FAFAFA"/>
<path d="M14.5832 18.7285L14.6734 18.8024C14.671 18.8277 14.673 18.8763 14.664 18.8983C14.5682 19.1351 9.52796 25.5315 9.21001 25.8548L9.12116 25.7987L9.11133 25.6986C9.19465 25.5151 9.74456 24.8848 9.90874 24.6789C11.4755 22.7121 12.9871 20.6695 14.5832 18.7285Z" fill="#FEFEFE"/>
<path d="M15.2301 10.2019C15.6383 10.1737 15.9982 10.2533 16.3511 10.4633C16.779 10.7214 17.0849 11.1409 17.1996 11.6271C17.5202 12.9567 16.6943 14.3574 15.571 15.0289C15.2276 15.2341 14.9196 15.2968 14.5363 15.3878C10.9242 15.4359 12.2343 10.4449 15.2301 10.2019Z" fill="#121112"/>
<path d="M16.2805 12.0958C16.8646 12.3956 16.5592 12.9665 16.3836 13.4327C16.2386 13.5495 15.9838 13.7087 15.8221 13.8167C15.6972 13.653 15.5167 13.4562 15.3789 13.2969C15.6468 12.5318 15.5801 12.4884 16.2805 12.0958Z" fill="#FEFEFE"/>
<path d="M13.3178 12.8099C13.487 12.8371 13.7686 12.8438 13.9479 12.8535C14.2208 13.5839 14.2553 13.6658 13.7646 14.2683C13.0733 14.2664 13.1416 13.9816 12.9082 13.3882L13.3178 12.8099Z" fill="#FEFEFE"/>
<path d="M15.4326 10.8804C15.6427 10.8921 16.0548 11.1938 16.2399 11.3169L16.2484 11.8781C16.079 12.009 15.9539 12.0737 15.7685 12.1746C15.4178 12.2136 15.2447 12.0795 14.9273 11.9165L14.9238 11.1906C15.0598 11.0898 15.2812 10.9691 15.4326 10.8804Z" fill="#FEFEFE"/>
<path d="M14.2168 11.2051L14.6971 11.253C14.6986 11.4924 14.6917 11.7453 14.6888 11.9856C14.3581 12.2084 14.1081 12.5782 14.0036 12.6345C13.7604 12.6354 13.5975 12.6677 13.4139 12.5337C13.3406 12.3893 13.3854 12.1388 13.4001 11.9672C13.6523 11.5952 13.8566 11.4759 14.2168 11.2051Z" fill="#FEFEFE"/>
<path d="M15.1532 13.5244C15.2937 13.5005 15.489 13.8764 15.5659 13.9914C15.4682 14.1718 15.376 14.3895 15.2905 14.5785C14.9796 14.6052 14.7438 14.6534 14.4377 14.714C14.3533 14.7382 14.2699 14.6959 14.1835 14.6658C13.9226 14.3487 14.1634 13.9894 14.3958 13.7363C14.6418 13.6568 14.9027 13.5914 15.1532 13.5244Z" fill="#FEFEFE"/>
<path d="M14.9645 10.4282C15.1004 10.4266 15.2237 10.4089 15.3293 10.4938C15.4214 10.7792 14.948 10.9205 14.7403 10.996C14.7003 10.9936 14.6604 10.9907 14.6205 10.9875C14.43 10.9723 14.3787 10.9767 14.2656 10.8438L14.2874 10.7474C14.4763 10.5508 14.7051 10.492 14.9645 10.4282Z" fill="#FEFEFE"/>
<path d="M13.1387 14.5497C13.6293 14.5062 14.2671 14.4802 13.9984 15.202C13.6665 15.1465 13.1374 14.9452 13.1387 14.5497Z" fill="#FEFEFE"/>
<path d="M16.5709 11.1476C16.9548 11.2995 17.1181 11.8322 16.9521 12.2065C16.3367 12.09 16.4386 11.6176 16.5709 11.1476Z" fill="#FEFEFE"/>
<path d="M16.3356 13.7717C16.3937 13.7858 16.4156 13.8199 16.457 13.8642C16.428 14.1594 15.9174 14.5719 15.6739 14.7277C15.562 14.6669 15.5948 14.7049 15.5508 14.5855C15.5724 14.3992 15.7221 14.1968 15.8248 14.0319L16.3356 13.7717Z" fill="#FEFEFE"/>
<path d="M12.9877 11.9865L13.0764 12.0698C13.1476 12.2484 13.1262 12.4755 13.1226 12.6717C12.9714 12.9185 12.8934 13.0279 12.7089 13.2509C12.6487 13.2196 12.635 13.1874 12.5974 13.1313C12.5625 12.7626 12.785 12.2885 12.9877 11.9865Z" fill="#FEFEFE"/>
<path d="M16.8356 21.4435L16.8876 21.4327L16.9247 21.4795C16.5268 22.2437 16.685 25.1585 16.6874 26.2011L16.1423 26.3649C15.8431 25.8118 14.0647 23.8605 13.568 23.3265C13.5631 24.2587 13.5033 25.4735 13.639 26.3818C13.6548 26.4875 13.8125 26.7365 13.8775 26.8385C13.6409 26.9087 13.4032 26.9751 13.1645 27.0378C13.0471 27.0706 13.0249 27.0739 12.903 27.0748C12.8664 26.8928 13.0874 26.525 13.0814 26.32C13.0463 25.1169 13.3404 23.4201 12.832 22.3312C13.2503 22.224 13.5654 22.1674 13.9932 22.0991C14.3969 22.8347 15.6385 23.9924 16.1995 24.823C16.2125 23.7547 16.3595 22.4716 15.9224 21.5352C16.2113 21.516 16.544 21.4739 16.8356 21.4435Z" fill="#121112"/>
<path d="M10.3755 17.4545C10.5538 17.4276 10.6186 17.4084 10.7465 17.5217C10.8246 17.7374 10.7793 18.1746 10.7753 18.4381C10.5325 18.3659 9.91678 18.0205 9.62903 17.8823C9.22438 18.0105 8.86935 18.2281 8.61216 18.6331C8.09076 19.4542 7.91596 21.4299 8.77362 22.0701C9.56349 22.6597 10.4186 21.1721 10.7999 21.0761C10.8667 21.2044 10.8224 21.2802 10.7966 21.4514C10.7634 21.6564 10.7516 21.8356 10.7372 22.0411C9.57472 22.5282 7.57877 23.3785 7.2148 21.2834C7.06177 20.4023 7.26891 19.3756 7.83432 18.6639C8.49049 17.8381 9.33509 17.5726 10.3755 17.4545Z" fill="#121112"/>
<path d="M21.6198 14.743C21.8089 14.719 21.9324 14.716 21.9514 14.9285C21.9777 15.2219 21.9541 15.5583 21.9536 15.8555C21.5557 15.5675 20.9728 15.0276 20.3636 15.3533C19.2192 15.9652 18.8672 18.9142 20.1755 19.5123C20.7943 19.7949 21.4684 18.6584 21.9281 18.4063L21.9913 18.451L21.9795 18.6662C21.943 18.9105 21.9131 19.1557 21.89 19.4014C21.4132 19.6456 20.711 19.8179 20.1727 19.9044C17.9029 20.2704 18.0115 17.1563 19.005 15.9785C19.6877 15.1691 20.5678 14.848 21.6198 14.743Z" fill="#121112"/>
<path d="M14.7718 6.0564C14.8298 6.11695 14.9602 6.65471 14.9951 6.78012C15.3384 6.80123 15.5827 6.80006 15.927 6.78897L15.1678 7.22641C15.2378 7.49253 15.3267 7.77882 15.4036 8.04523C15.1596 7.85776 15.0116 7.76782 14.7467 7.61326C14.4154 7.7602 14.3383 7.80821 14.0637 8.02384L14.3032 7.22561C14.1002 7.04985 13.8181 6.88462 13.5879 6.7389C13.8903 6.7527 14.2006 6.75883 14.5039 6.76833C14.6055 6.53469 14.6866 6.29641 14.7718 6.0564Z" fill="#121112"/>
<path d="M28.7075 4.45502C28.9902 4.57654 29.0512 4.80949 29.1744 5.08834C29.4472 5.00855 29.7182 4.92226 29.987 4.82966C29.8346 5.04819 29.6268 5.2874 29.4552 5.49583C29.6542 5.75755 29.7616 5.88853 29.9047 6.18624C29.6923 6.07997 29.4521 5.97786 29.2338 5.87969C29.077 5.91464 28.72 6.41198 28.5827 6.57777C28.6256 6.25475 28.637 6.0423 28.6451 5.71581C28.3644 5.5569 28.0803 5.47248 27.7754 5.36864L28.6869 5.20542L28.7075 4.45502Z" fill="#121112"/>
<path d="M22.1014 3.57379L22.1422 3.59097C22.3049 4.03701 21.5764 4.36762 22.9299 4.68213C22.5715 4.70819 22.3118 4.74235 21.9566 4.80005C21.9072 5.12415 21.8594 5.44854 21.8133 5.77311C21.6849 5.38129 21.6805 5.29032 21.4741 4.91966C21.1591 4.91596 20.8613 4.98887 20.5527 5.0512C20.7909 4.85714 20.9937 4.65382 21.2129 4.4395C21.104 4.19897 20.9895 3.96102 20.8697 3.72578C21.1506 3.89293 21.2826 3.93584 21.591 4.04371C21.7936 3.8818 21.9199 3.75559 22.1014 3.57379Z" fill="#121112"/>
<path d="M18.376 4.46484C18.4658 4.59863 18.4417 5.01731 18.4465 5.21595C18.6423 5.23836 18.8824 5.24735 19.0485 5.34337L19.06 5.42124C18.9136 5.55727 18.6343 5.64005 18.4389 5.71287C18.4445 5.95049 18.4919 6.29425 18.5191 6.53922C18.3993 6.38306 18.0726 5.91661 17.9103 5.87552C17.6514 6.00528 17.4037 6.10936 17.1376 6.22232C17.286 5.99789 17.5469 5.69293 17.7232 5.47562C17.5064 5.27023 17.2946 5.05966 17.0879 4.84412C17.3579 4.90388 17.655 4.98558 17.9257 5.05376C18.0922 4.80022 18.1747 4.69152 18.376 4.46484Z" fill="#121112"/>
<path d="M32.3709 6.0589C32.408 6.0902 32.5979 6.64996 32.6401 6.75914C32.9237 6.77435 33.2865 6.75291 33.5767 6.74299C33.3408 6.89096 33.0553 7.04094 32.8083 7.17753C32.883 7.61315 32.9465 7.7387 33.1392 8.12232C32.8597 7.85297 32.7641 7.76509 32.405 7.61432C32.0656 7.81853 31.9808 7.86701 31.6736 8.1291C31.8358 7.77407 31.8857 7.62583 31.9867 7.24791C31.7449 7.08085 31.464 6.93013 31.207 6.78413C31.5209 6.80111 31.8225 6.78951 32.1363 6.78127C32.2204 6.55273 32.2966 6.29292 32.3709 6.0589Z" fill="#121112"/>
<path d="M24.9621 3.51929C25.1408 3.61517 25.362 3.89828 25.5044 4.06084C25.8894 3.94433 26.0451 3.85087 26.3793 3.64778C26.115 3.9856 26.0586 4.079 25.9132 4.4667L26.6168 5.04064L25.8042 4.90661L25.6975 4.94003C25.5324 5.14461 25.4467 5.36946 25.3397 5.6091C25.3046 5.35168 25.2587 5.08312 25.2187 4.82533C24.9437 4.75205 24.6624 4.7171 24.3809 4.6754C24.7397 4.53932 24.8194 4.50343 25.1202 4.28789C25.0591 4.03979 24.9832 3.77217 24.9621 3.51929Z" fill="#121112"/>
</svg>
