<svg width="71" height="25" viewBox="0 0 71 25" fill="none" xmlns="http://www.w3.org/2000/svg">
<g clip-path="url(#clip0_40_2751)">
<path d="M21.1323 2.3552C22.2454 2.37158 23.3731 2.34332 24.4867 2.35477C25.1033 2.3611 25.8537 2.31869 26.4499 2.42308C26.9317 2.5079 27.3948 2.68108 27.8172 2.93437C28.7925 3.51669 29.5029 4.47398 29.7922 5.59546C29.8879 5.97517 29.9095 6.26675 29.9303 6.64762C30.0569 8.96304 28.7811 10.7828 26.588 11.362C25.7284 11.5118 24.2641 11.4574 23.3362 11.4562C23.3433 12.1851 23.3911 12.7732 22.9928 13.4199C22.516 14.1939 21.975 14.6238 21.1289 14.8452C21.1644 13.4912 21.1331 11.9891 21.1333 10.6172L21.1323 2.3552ZM23.3364 4.60594L23.3374 9.10152L25.6022 9.10121C28.463 8.98271 28.3807 4.60583 25.5262 4.60224C24.7995 4.60322 24.062 4.59716 23.3364 4.60594Z" fill="#013398"/>
<path d="M34.5573 2.23773C37.0071 1.93201 39.2346 3.72631 39.5344 6.24707C39.8343 8.76788 38.0934 11.0622 35.6443 11.3738C33.191 11.686 30.9571 9.89071 30.6567 7.36578C30.3562 4.84081 32.1033 2.54395 34.5573 2.23773ZM35.463 8.97214C36.624 8.76336 37.4016 7.62604 37.2001 6.43077C36.9986 5.23551 35.8941 4.43416 34.7324 4.64019C33.5689 4.84656 32.7887 5.98523 32.9906 7.18243C33.1924 8.3796 34.2996 9.18123 35.463 8.97214Z" fill="#013398"/>
<path d="M55.6596 2.30678C55.7367 2.28894 55.942 2.28282 56.0307 2.28666C57.4494 2.34818 58.7088 1.98625 59.827 3.12224C60.3592 3.66284 60.6587 4.40057 60.6583 5.17017C60.6604 5.93858 60.3636 6.67592 59.8342 7.2176C59.4929 7.56709 59.0522 7.83705 58.5854 7.9627C57.8127 8.17063 55.3947 8.06663 54.4465 8.06416C55.6301 9.6672 57.1749 8.70998 58.7386 9.24518C59.1457 9.38458 59.4418 9.57629 59.7752 9.84318C60.2858 10.3127 60.5024 10.7475 60.6199 11.4307L58.045 11.424C56.4084 11.4155 54.6864 11.5095 53.3475 10.3712C52.4723 9.62711 51.9374 8.48308 51.827 7.32946C51.7016 6.07337 52.0655 4.81737 52.8393 3.83716C53.5685 2.92744 54.5233 2.41677 55.6596 2.30678ZM54.3941 5.69235L57.0077 5.68999C57.313 5.69517 58.1036 5.76415 58.2763 5.52745C58.6279 5.04642 58.2972 4.53391 57.7198 4.5842C57.1828 4.63103 56.4149 4.51606 55.9135 4.59597C55.2234 4.68343 54.7295 5.07735 54.3941 5.69235Z" fill="#013398"/>
<path d="M14.0501 2.30505C14.3731 2.26619 15.6775 2.29516 16.0664 2.29536L20.3757 2.29448C20.131 3.71586 19.095 4.57885 17.6894 4.61542C16.5959 4.64385 15.4985 4.58178 14.4055 4.61599C14.0509 4.6271 13.7109 4.87597 13.7824 5.28234C13.9068 5.89952 14.7996 5.71974 15.2323 5.74591C16.5397 5.82444 18.1522 5.43423 19.2619 6.28413C19.8424 6.73261 20.2278 7.39846 20.3345 8.13742C20.5728 9.84581 19.4898 11.1754 17.8619 11.414C17.2104 11.4441 16.3761 11.4195 15.7031 11.4195L11.5488 11.4194C11.7782 9.98585 12.8528 9.12776 14.2544 9.10357C15.3356 9.08491 16.4177 9.13051 17.4985 9.10568C18.2049 9.08946 18.4187 8.2465 17.7205 8.02193C17.427 7.93232 16.9783 7.97986 16.6606 7.97428C15.7688 7.9326 14.7214 8.06404 13.847 7.93567C11.4848 7.58886 10.7406 4.37516 12.605 2.89444C13.0856 2.51276 13.4807 2.39051 14.0501 2.30505Z" fill="#013398"/>
<path d="M44.5342 2.34295C44.8135 2.31596 45.37 2.33153 45.6695 2.33058L45.6664 4.65555L44.9841 4.65015C44.2727 4.64835 43.6528 4.71581 43.1175 5.2691C42.8471 5.55243 42.6617 5.90963 42.5829 6.29823C42.487 6.75051 42.5202 7.81868 42.5212 8.34516L42.5243 11.4153L41.4809 11.4105L40.2798 11.4159L40.2777 8.54163C40.2777 7.67963 40.2253 6.56724 40.425 5.75245C40.5978 5.06357 40.9261 4.42653 41.3839 3.89352C42.2156 2.91842 43.2892 2.42569 44.5342 2.34295Z" fill="#013398"/>
<path d="M6.80804 0.117326C7.27392 0.0544316 8.46536 0.0944368 9.00039 0.0945871L13.4093 0.091198C13.1204 1.43737 11.9762 2.19465 10.7082 2.38802C10.0854 2.43472 9.11752 2.40155 8.4559 2.40148L4.14453 2.39994C4.47724 1.00466 5.47514 0.332219 6.80804 0.117326Z" fill="#013398"/>
<path d="M24.625 24.9331C24.7404 23.6073 25.7855 22.8557 26.9764 22.6153C27.6177 22.4858 28.3193 22.5237 28.9732 22.5252L31.4092 22.5313C31.8398 22.5324 32.355 22.5798 32.758 22.4202C33.3571 22.183 33.5023 21.2069 33.1184 20.7277C32.6997 20.2051 31.7327 20.3362 31.1269 20.3383L28.95 20.3462C28.3596 20.3473 27.7784 20.3718 27.2015 20.222C26.5338 20.0513 25.9331 19.674 25.4803 19.1408C24.8664 18.4078 24.5992 17.5145 24.6742 16.5525C24.7484 15.6565 25.1647 14.8273 25.832 14.2467C26.2921 13.848 26.8455 13.5799 27.4372 13.4689C28.0098 13.3584 29.6942 13.4031 30.3483 13.4039L35.6915 13.4038C35.5575 14.176 35.3111 14.6936 34.6614 15.1594C33.5851 15.9312 32.3838 15.814 31.146 15.8124L28.9722 15.8064C28.5651 15.8045 28.0166 15.7638 27.641 15.8869C26.6622 16.2076 26.7572 17.8226 27.8117 17.9682C28.2157 18.024 28.6059 18.002 29.0063 18.001L31.108 17.9942C31.6082 17.9926 32.1269 17.971 32.6233 18.0257C34.6035 18.2442 35.9403 20.1126 35.5832 22.1184C35.4242 22.9994 34.9324 23.7795 34.2152 24.2876C33.6792 24.6677 33.2141 24.811 32.5806 24.9331H24.625Z" fill="#013398"/>
<path d="M12.8739 13.5249L12.8683 24.9329H7.92324C7.72403 24.8967 7.52425 24.8584 7.32738 24.8104C4.92239 24.2249 3.71477 21.8462 4.13507 19.4187C4.33643 18.2665 4.9789 17.2456 5.9183 16.5853C7.34431 15.5734 9.01461 15.8459 10.7041 15.832C10.8209 14.7464 11.843 13.723 12.8739 13.5249ZM8.96064 22.6802L10.6585 22.681L10.6616 18.1825C9.96573 18.1819 8.70517 18.1431 8.05154 18.2073C6.7518 18.5163 6.04899 19.6799 6.35234 21.0184C6.47735 21.5751 6.8152 22.0564 7.28951 22.3534C7.85484 22.7111 8.33 22.6895 8.96064 22.6802Z" fill="#013398"/>
<path d="M13.6133 15.7315L17.648 15.7296C18.2867 15.7296 19.6641 15.6851 20.2484 15.8217C20.7592 15.9418 21.2267 16.2077 21.5972 16.5888C21.9823 16.9833 22.25 17.4827 22.369 18.0282C22.492 18.5835 22.4495 19.9965 22.4486 20.6422L22.4469 24.9329H16.0805C15.7347 24.8573 15.41 24.7836 15.0922 24.6141C13.2197 23.6153 13.1041 20.7962 14.8737 19.6278C15.1484 19.4466 15.4539 19.3205 15.7741 19.256C16.1545 19.1819 16.726 19.2031 17.1269 19.2048L18.948 19.213C19.175 19.214 19.7124 19.2395 19.8841 19.1527C20.4088 18.8875 20.3129 18.162 19.6806 18.104C19.343 18.073 19.064 18.0848 18.7458 18.0869L17.1145 18.0956C16.7242 18.0964 16.1895 18.1293 15.8195 18.0445C14.6989 17.7875 13.8109 16.8917 13.6133 15.7315ZM19.7456 22.5967L20.1587 22.5942C20.1596 22.2263 20.1657 21.8441 20.159 21.4775C18.9337 21.478 17.5099 21.4411 16.3016 21.484C15.6149 21.7957 15.8209 22.5754 16.4898 22.5912C17.5736 22.6168 18.6609 22.5931 19.7456 22.5967Z" fill="#013398"/>
<path d="M40.2781 24.9329C38.8834 24.6783 37.8488 24.2151 37.0079 22.9778C36.3205 21.9658 36.0538 20.7134 36.267 19.4984C36.4798 18.297 37.148 17.2321 38.1247 16.5386C39.1051 15.8459 40.312 15.5812 41.4816 15.8027C42.6491 16.0265 43.6823 16.7191 44.353 17.7276C45.0233 18.7392 45.2768 19.9831 45.0582 21.1867C44.8399 22.3876 44.1641 23.4488 43.1806 24.1335C42.4737 24.6281 41.8815 24.7971 41.0502 24.9329H40.2781ZM40.9158 22.513C42.0889 22.3703 42.9271 21.275 42.7866 20.0679C42.6461 18.8608 41.5803 18.0001 40.4076 18.1465C39.2374 18.2926 38.4033 19.3864 38.5434 20.5908C38.6836 21.7953 39.7452 22.6554 40.9158 22.513Z" fill="#013398"/>
<path d="M62.9276 24.9329C62.5305 24.8776 62.0158 24.9089 61.6015 24.875C60.2989 24.7685 59.116 24.3121 58.3007 23.2087C57.566 22.2035 57.2487 20.9398 57.4173 19.6942C57.5831 18.4781 58.1736 17.3616 59.1324 16.619C60.2311 15.7679 61.2464 15.7626 62.5342 15.7803C62.9681 15.7863 63.4208 15.7574 63.8515 15.8208C64.5794 15.9334 65.2346 16.3379 65.6736 16.9459C66.1225 17.5677 66.3116 18.3481 66.1989 19.1139C66.0827 19.8679 65.6828 20.5444 65.0852 20.9971C64.7634 21.2398 64.3943 21.4084 64.0033 21.4915C63.5301 21.592 62.9389 21.5543 62.4486 21.5594C61.6405 21.5678 60.8188 21.542 60.0111 21.56C61.4538 23.3551 63.0027 21.9896 64.7778 22.9469C65.1136 23.1254 65.4118 23.3705 65.6551 23.668C65.9477 24.028 66.1334 24.4672 66.19 24.9329H62.9276ZM59.9638 19.1897L62.624 19.1892C62.8437 19.193 63.2258 19.2162 63.4321 19.1918C64.2877 19.0907 64.164 17.9738 63.1593 18.0817C62.6631 18.1349 61.9136 18.0634 61.3821 18.0987C60.8006 18.231 60.3633 18.5294 60.0419 19.0493C60.0131 19.0945 59.9871 19.1414 59.9638 19.1897Z" fill="#013398"/>
<path d="M70.182 2.3305V2.46235C69.9997 3.24323 69.6741 3.78626 68.9898 4.22081C68.6608 4.43057 68.2921 4.56571 67.9083 4.61719C67.0283 4.7395 65.9512 4.59015 65.0475 4.64244C64.6524 4.66533 63.7666 4.49729 63.6199 5.04821C63.55 5.39311 63.7238 5.61864 64.0174 5.77515L66.2277 5.76732C66.7798 5.76608 67.6307 5.73036 68.1362 5.86035C68.6036 5.98036 69.0306 6.22771 69.3729 6.57642C69.8756 7.08788 70.0473 7.5736 70.182 8.26365V8.97316C70.013 9.66384 69.9126 10.0949 69.3842 10.6349C69.0182 11.008 68.5566 11.2661 68.0536 11.3791C67.5334 11.4986 66.2199 11.4529 65.6195 11.4526L61.375 11.4512C61.6279 9.96798 62.7259 9.11891 64.1991 9.13426C64.4629 9.13701 64.7429 9.13485 65.0081 9.13563L66.7267 9.14318C67.067 9.14646 67.5656 9.20726 67.8298 8.93324C67.923 8.83651 67.9624 8.70927 67.9617 8.5748C67.9607 8.41765 67.8928 8.27126 67.7842 8.16236C67.5132 7.89149 66.0574 8.00995 65.6209 8.01248C64.3858 8.01957 63.146 8.17901 62.1858 7.1946C61.6639 6.65545 61.3736 5.92379 61.3795 5.1629C61.3736 4.40796 61.6629 3.68233 62.182 3.14915C62.5446 2.78026 62.9997 2.52274 63.4966 2.40555C64.025 2.2853 65.345 2.32735 65.9639 2.32748L70.182 2.3305Z" fill="#013398"/>
<path d="M0 7.58714C0.264184 5.93102 1.22746 4.80484 2.87493 4.52758C3.23061 4.46774 3.54291 4.48188 3.90039 4.47927C6.19675 4.46241 8.50062 4.50787 10.7964 4.47966C10.6826 5.22757 10.4254 5.74619 9.8134 6.20701C8.76674 6.99517 7.53812 6.90069 6.31583 6.89773L4.25082 6.89078C3.85797 6.88976 3.32253 6.848 2.95355 6.97189C1.99047 7.29528 2.11676 8.90721 3.12452 9.05554C3.44027 9.09835 3.86708 9.07286 4.19935 9.07226L6.38811 9.0687C7.98481 9.06679 9.13547 8.98395 10.304 10.4725C10.5357 10.7677 10.6677 11.0797 10.8095 11.426L5.70548 11.4239C4.91943 11.4242 3.30036 11.4795 2.61521 11.3205C1.98613 11.1747 1.41014 10.8483 0.954193 10.3791C0.36968 9.77317 0.142771 9.15421 0 8.33887V7.58714Z" fill="#3BE681"/>
<path d="M54.9455 24.933C53.9215 24.7756 53.2279 24.6815 52.5316 23.714C52.2585 23.336 52.0769 22.8964 52.0015 22.4318C51.9206 21.9487 51.9542 19.973 51.9542 19.3943L51.9552 17.3979C51.9559 17.0504 51.9562 16.7067 51.9655 16.3598C52.0032 14.8985 52.8959 13.8552 54.2447 13.5045L54.2443 15.8692L57.9189 15.8701C57.872 16.4782 57.6386 16.9435 57.1825 17.3357C56.2254 18.1586 55.379 18.0866 54.2437 18.0847L54.2402 20.706C54.2399 21.1066 54.1967 21.5637 54.2584 21.9574C54.2831 22.1157 54.343 22.2656 54.4547 22.3806C55.1816 23.13 57.0101 22.0369 57.8984 24.933H54.9455Z" fill="#013398"/>
<path d="M48.638 0H48.6928L48.6956 2.35816C49.9282 2.36412 51.1608 2.36306 52.3931 2.35498C52.2451 3.27578 51.8284 3.80279 51.0231 4.23663C50.2795 4.63721 49.5022 4.56897 48.6949 4.56619C48.6969 5.21127 48.614 8.23214 48.7514 8.61594C48.9968 9.30091 50.2308 9.13403 50.8757 9.44211C51.6601 9.81674 52.0624 10.6091 52.3462 11.4065C51.119 11.4259 48.9738 11.6031 47.9029 11.0256C47.2224 10.6585 46.7388 9.98909 46.5175 9.23916C46.305 8.52062 46.4037 6.13781 46.404 5.28861C46.404 4.37469 46.3321 3.31152 46.4469 2.4122C46.4877 2.09308 46.6055 1.76761 46.7526 1.48464C47.1634 0.693358 47.8248 0.255793 48.638 0Z" fill="#013398"/>
<path d="M45.8562 24.9329L45.8545 21.9899C45.8542 20.1245 45.7288 18.6805 47.1495 17.2094C48.2516 16.0684 49.3396 15.861 50.8228 15.8597L51.2425 15.8601C51.2364 16.6321 51.236 17.4043 51.2412 18.1764C50.3399 18.1646 49.4164 18.0607 48.7166 18.7673C48.2454 19.2432 48.1018 19.8312 48.0964 20.4905L48.0977 24.9329H45.8562Z" fill="#013398"/>
</g>
<defs>
<clipPath id="clip0_40_2751">
<rect width="70.1816" height="24.933" fill="white"/>
</clipPath>
</defs>
</svg>
