<svg width="121" height="37" viewBox="0 0 121 37" fill="none" xmlns="http://www.w3.org/2000/svg">
<g clip-path="url(#clip0_37_2068)">
<path d="M0 0H120.973V37H0V0ZM25.562 27.2046C26.4009 26.9278 28.2609 26.542 28.5447 25.7137C28.8381 24.8575 28.7374 22.8714 28.7366 21.9099C28.745 20.2459 28.7442 18.5819 28.7341 16.9179C28.725 14.5157 28.74 12.1164 28.7311 9.71161C28.7282 8.92462 28.4267 8.34551 27.7473 7.90411C27.5844 7.79831 26.8862 7.75599 26.6699 7.7372C25.4511 7.72319 24.2221 7.7304 23.0023 7.73028L15.925 7.72957H11.6587C11.1311 7.72957 9.92401 7.69878 9.44301 7.75404C8.52863 8.03727 8.03015 8.52507 7.98981 9.52336C7.9562 10.3562 7.96842 11.1827 7.96931 12.0161L7.97161 16.288L7.97085 21.8351C7.97173 22.9545 7.89022 24.3764 8.09507 25.48C8.18556 25.8619 8.56791 26.2868 8.93573 26.4322C10.472 27.0394 11.7984 27.3931 13.434 27.8305C14.7639 28.1862 17.253 29.1916 18.5625 29.2549C19.2479 29.2881 21.2073 28.3578 21.9624 28.2522C23.2063 27.8469 24.3322 27.5592 25.562 27.2046ZM67.0914 23.405C68.2101 23.3943 69.3732 23.4208 70.2817 22.6774C70.9161 22.0609 71.1075 21.7343 71.1211 20.8289C71.1559 18.4293 69.0826 18.0948 67.1865 18.083L67.102 18.0825C67.0813 19.8275 67.1316 21.6794 67.0914 23.405ZM35.7706 19.9713C36.5002 19.9506 37.3164 19.9901 37.9743 19.685C38.3429 19.4093 38.3021 18.6842 38.0771 18.3696C37.6875 17.8247 36.3558 17.9566 35.7827 17.965L35.7706 19.9713ZM58.583 12.5898C59.6789 11.2945 58.5521 10.327 57.1469 10.4088C57.1448 11.2036 57.1602 12.081 57.1216 12.8688C57.6855 12.8288 58.0565 12.8219 58.583 12.5898ZM71.857 12.8447C72.5245 12.8544 73.0721 12.3179 73.0762 11.65C73.081 10.9821 72.5405 10.4386 71.873 10.4396C71.2126 10.4405 70.6769 10.974 70.6727 11.6344C70.6686 12.2949 71.1973 12.8353 71.857 12.8447Z" fill="#FDFCFE" fill-opacity="0.01"/>
<path d="M9.44252 7.75403C9.92352 7.69877 11.1306 7.72956 11.6582 7.72956H15.9245L23.0018 7.73027C24.2216 7.73039 25.4506 7.72318 26.6694 7.73719C26.8857 7.75598 27.5839 7.7983 27.7468 7.9041C28.4263 8.3455 28.7277 8.92462 28.7306 9.7116C28.7395 12.1164 28.7245 14.5157 28.7336 16.9179C28.7437 18.5819 28.7445 20.2458 28.7361 21.9098C28.737 22.8714 28.8376 24.8575 28.5442 25.7137C28.2604 26.542 26.4004 26.9278 25.5615 27.2046C24.3317 27.5592 23.2058 27.8469 21.962 28.2522C21.2068 28.3578 19.2474 29.2881 18.562 29.2549C17.2525 29.1916 14.7634 28.1862 13.4336 27.8305C11.7979 27.3931 10.4715 27.0394 8.93524 26.4322C8.56742 26.2868 8.18507 25.8619 8.09458 25.48C7.88973 24.3764 7.97124 22.9545 7.97035 21.8351L7.97112 16.288L7.96882 12.0161C7.96793 11.1827 7.95571 10.3562 7.98932 9.52335C8.02966 8.52506 8.52814 8.03727 9.44252 7.75403ZM18.166 11.8716C17.4709 11.8704 16.4868 11.7996 15.9674 12.341C15.331 13.0044 15.5414 14.7506 15.5269 15.6545C14.3892 15.6923 13.16 15.6464 12.0196 15.6498C9.85382 15.6563 9.86303 16.5659 9.86061 18.3348C11.0964 18.3587 14.516 18.2938 15.5284 18.5198C14.2781 18.6981 13.0767 18.6605 11.8145 18.6624C11.8062 19.3666 11.7134 20.4201 12.2512 20.9384C12.9088 21.5721 14.636 21.347 15.5281 21.3229C15.5301 22.4553 15.5357 23.6736 15.5186 24.7986C15.4853 26.9956 16.4099 27.014 18.2277 27.0264C18.1228 26.2429 18.2154 22.5229 18.3483 21.7717C18.5109 22.5317 18.446 24.1803 18.4978 25.0679C18.6304 25.0686 18.7975 25.0613 18.9252 25.069C21.7612 25.24 21.0872 23.3987 21.22 21.3288C22.2934 21.3502 23.3669 21.3593 24.4404 21.3655C25.1671 21.3696 25.8151 21.3996 26.3889 20.8721C26.9981 20.3117 26.8488 19.4201 26.829 18.664C26.1329 18.6593 21.6172 18.7129 21.3081 18.5304C21.6887 18.2737 24.2803 18.3834 24.9466 18.35C24.947 15.9436 24.6716 15.6288 22.2988 15.6636C21.9371 15.6705 21.5754 15.6739 21.2137 15.6738C21.1834 14.688 21.1941 13.7082 21.1987 12.7216C21.2024 11.9362 21.2857 10.9568 20.6546 10.3686C20.1399 9.88874 19.1838 9.97173 18.5185 9.97663C18.5941 10.6021 18.4524 12.4096 18.435 13.1579C18.3788 13.2929 18.3747 13.5585 18.2907 13.8126C18.2902 13.6147 18.3187 13.1066 18.2222 12.9605C18.2003 12.6558 18.1506 12.1621 18.166 11.8716Z" fill="#FDFDFD"/>
<path d="M18.2218 12.9605C18.3183 13.1066 18.2898 13.6147 18.2903 13.8126C18.3743 13.5585 18.3784 13.2929 18.4346 13.1579C18.4822 13.6984 18.4618 14.9628 18.3537 15.4838C18.2206 14.7804 18.187 13.6778 18.2218 12.9605Z" fill="#FDFDFD" fill-opacity="0.886275"/>
<path d="M67.2129 15.5779C68.6577 15.4371 70.6063 15.8627 71.8775 16.5066C74.19 17.6778 75.082 20.8011 73.8344 23.0641C72.9809 24.6131 72.278 24.9769 70.689 25.489C68.6789 26.0524 65.9978 25.9274 63.879 25.9306C63.8501 23.9896 63.8412 22.0484 63.8518 20.1073C63.8507 18.6529 63.8146 17.0246 63.8867 15.5889C64.9954 15.5987 66.1041 15.5951 67.2129 15.5779ZM67.0906 23.405C68.2093 23.3943 69.3724 23.4208 70.2809 22.6774C70.9153 22.0609 71.1067 21.7343 71.1202 20.8289C71.1551 18.4292 69.0818 18.0948 67.1857 18.083L67.1012 18.0825C67.0805 19.8275 67.1307 21.6794 67.0906 23.405Z" fill="#FDFDFD"/>
<path d="M83.4245 15.5941C84.4174 15.59 85.4098 15.596 86.4021 15.6125C86.916 16.0471 88.196 17.7377 88.6402 18.306L91.2174 21.562C91.0969 19.9051 91.1548 17.2355 91.1949 15.597L94.2653 15.5965C94.4089 18.2057 94.2571 20.8983 94.3167 23.5176C94.3339 24.2855 94.3297 25.1214 94.2937 25.8848C93.5843 26.0065 92.4212 25.9227 91.6846 25.9205C91.0993 25.9187 90.1967 24.5763 89.808 24.0972C88.6904 22.7281 87.5923 21.3434 86.5138 19.9435C86.5734 20.5727 86.6372 25.5937 86.4647 25.8304C86.0601 26.0031 84.0092 25.9317 83.4233 25.9273C83.3494 24.8612 83.4044 23.0216 83.405 21.8987C83.4062 19.8368 83.3683 17.647 83.4245 15.5941Z" fill="#FDFDFD"/>
<path d="M32.583 15.5627C34.7763 15.6084 37.711 15.3014 39.7248 16.1455C42.215 17.1894 42.0984 20.6018 39.4365 21.6078C39.7542 22.0263 40.0847 22.4521 40.3758 22.8887C40.9371 23.7305 41.8101 25.2039 42.5237 25.889C41.9658 25.947 41.2828 25.9326 40.7122 25.9344C40.4075 25.9314 39.1922 26.0038 38.9249 25.879C38.0184 25.4561 36.8663 21.9605 35.8576 22.0729C35.7148 22.244 35.7885 25.4057 35.7689 25.9123C35.0979 25.9845 33.3319 25.9364 32.5813 25.9361C32.5283 25.3627 32.5498 24.5363 32.5495 23.9448L32.5495 20.5932C32.5498 19.4084 32.477 16.6271 32.583 15.5627ZM35.7698 19.9712C36.4993 19.9506 37.3155 19.9901 37.9734 19.685C38.342 19.4093 38.3013 18.6842 38.0763 18.3695C37.6867 17.8247 36.3549 17.9566 35.7819 17.965L35.7698 19.9712Z" fill="#FDFDFD"/>
<path d="M105.444 15.5493C107.736 15.7289 110.571 15.4353 112.782 15.6149C112.861 16.3277 112.834 17.3952 112.793 18.1046C112.323 18.1362 111.573 18.0975 111.078 18.0992C110.317 18.102 109.447 18.1322 108.697 18.0858C108.727 18.4774 108.696 18.9949 108.682 19.3959C109.8 19.3978 111.058 19.3741 112.165 19.4188C112.223 20.0504 112.187 21.0871 112.184 21.7486C111.19 21.8026 109.739 21.7595 108.706 21.7588C108.728 22.0603 108.71 22.2948 108.691 22.5969C108.701 22.8495 108.691 23.1405 108.688 23.3964C109.331 23.4092 112.557 23.3524 112.925 23.5063C113.132 23.9165 113.034 25.3809 113.005 25.9059C112.297 25.9672 111.074 25.9323 110.328 25.9317L105.444 25.9275C105.326 23.7481 105.448 21.3026 105.397 19.0919C105.385 18.5776 105.368 15.9281 105.444 15.5493Z" fill="#FDFDFD"/>
<path d="M49.4622 15.5735C49.7861 15.5423 49.9802 15.5742 50.019 15.9387C50.0931 16.6358 50.023 17.4161 49.9914 18.115C48.8838 18.1654 47.0402 18.1069 45.8821 18.1001C45.8777 18.5164 45.8937 18.9691 45.9011 19.3883C47.037 19.4188 48.1921 19.3707 49.3224 19.4182C49.3544 20.1885 49.3452 20.9725 49.3443 21.7443C48.4 21.7973 46.8337 21.7685 45.8767 21.7551C45.8723 22.2911 45.891 22.854 45.9011 23.392C47.2099 23.4206 48.8873 23.4611 50.1754 23.3737C50.2131 23.8688 50.1994 24.5233 50.202 25.0311C50.2089 25.293 50.2386 25.5905 50.1442 25.8291C49.918 26.0056 43.3955 25.9368 42.6115 25.9056C42.5138 23.5829 42.6354 21.1759 42.5881 18.8446C42.5669 17.7949 42.5611 16.6215 42.6263 15.5794C44.8721 15.6206 47.2126 15.5938 49.4622 15.5735Z" fill="#FDFDFD"/>
<path d="M75.1218 15.5936C77.3008 15.5372 79.6139 15.6316 81.8066 15.5766C82.0564 15.5704 82.2797 15.5608 82.4451 15.7286C82.5686 16.0833 82.5697 17.6466 82.428 18.0049C82.1858 18.17 78.8189 18.1192 78.3286 18.0845L78.3227 19.3985C79.4887 19.3959 80.6547 19.3997 81.8208 19.4099C81.8609 20.1649 81.8503 20.9829 81.8544 21.7433C80.9099 21.8013 79.2932 21.766 78.3245 21.757C78.3304 22.0361 78.3197 22.3522 78.3174 22.6346L78.3233 23.398C79.6323 23.4211 81.4167 23.4546 82.7068 23.3795C82.7127 24.1986 82.7381 25.1024 82.7021 25.9146C82.0895 25.9669 80.803 25.9312 80.1361 25.9311L75.117 25.9285C75.0727 24.2128 75.0958 22.5473 75.1023 20.8329C75.1088 19.1001 75.0237 17.3221 75.1218 15.5936Z" fill="#FDFDFD"/>
<path d="M54.1424 15.45C55.2657 15.3299 57.3354 15.6739 58.2938 16.264C58.3116 17.139 58.3143 18.0142 58.302 18.8894C57.0396 18.3865 55.7847 17.8569 54.3959 17.8987C53.6323 17.9217 53.3695 18.8177 54.0643 19.0804C55.3501 19.5665 56.7231 19.6705 57.8569 20.5463C59.2824 21.6473 59.2505 23.984 57.7977 25.0432C56.851 25.7358 56.0358 25.9386 54.8962 26.0699C53.5397 26.1236 52.013 25.8727 50.7696 25.3179C50.7207 24.445 50.7405 23.4608 50.7811 22.5884C52.0411 23.141 53.5973 23.7446 54.9999 23.5431C55.4299 23.4422 55.9112 22.7455 55.3558 22.4504C54.0425 21.7525 52.5138 21.7494 51.315 20.7496C50.0805 19.7201 50.0372 17.9194 51.0899 16.7411C51.8875 15.8483 52.9882 15.5347 54.1424 15.45Z" fill="#FDFDFD"/>
<path d="M104.478 15.5724C104.598 15.5644 104.826 15.5786 104.954 15.5825C104.973 16.4241 104.973 17.2659 104.953 18.1075C103.843 18.0884 102.546 18.1467 101.476 18.0821C101.535 18.8875 101.468 20.7283 101.468 21.632C101.468 22.8906 101.544 24.6967 101.468 25.9032C100.781 25.9781 99.0381 25.9322 98.2832 25.9201C98.2501 24.9736 98.2613 23.9871 98.2602 23.0363C98.2944 21.3928 98.2105 19.7099 98.2489 18.0864C97.103 18.0841 95.9571 18.0972 94.8111 18.1255C94.7402 17.3444 94.7786 16.3871 94.8165 15.6016C98.018 15.5416 101.263 15.6295 104.478 15.5724Z" fill="#FDFDFD"/>
<path d="M59.4845 15.6008C60.5194 15.592 61.6884 15.5584 62.7121 15.5991C62.7812 16.5731 62.7593 25.7139 62.6577 25.9001C61.9353 25.9742 60.2329 25.9334 59.4544 25.9172C59.3446 24.4384 59.4308 21.8335 59.4278 20.2513L59.4249 17.3935C59.4255 16.9349 59.4113 16.02 59.4845 15.6008Z" fill="#FDFDFD"/>
<path d="M55.6643 9.22369C57.5277 9.20619 60.2041 8.95795 60.4705 11.5195C60.5479 12.2598 60.2183 12.8103 59.7581 13.359C58.3147 14.2568 57.2999 14.0842 55.6458 14.0796C55.6162 13.0668 55.5451 10.1658 55.6643 9.22369ZM58.5837 12.5898C59.6796 11.2945 58.5528 10.327 57.1476 10.4088C57.1455 11.2036 57.1609 12.081 57.1223 12.8688C57.6863 12.8288 58.0573 12.8219 58.5837 12.5898Z" fill="#FDFDFD"/>
<path d="M48.421 9.21563C48.8035 9.20783 49.368 9.15996 49.6999 9.32439C49.9022 9.61046 49.8051 13.4518 49.7883 14.0674C49.3221 14.0873 48.8083 14.0849 48.3378 14.0925C48.315 13.7581 48.3191 13.3597 48.3139 13.02C48.3139 12.5024 48.2959 11.8637 48.3738 11.3635C47.902 11.8916 47.4394 12.5228 47.0059 13.0896C46.571 12.572 46.1644 11.9183 45.7321 11.4472C45.76 12.3191 45.758 13.1918 45.7261 14.0636C45.3046 14.093 44.7104 14.0807 44.2762 14.0841C44.2061 13.5062 44.173 9.64521 44.3217 9.23065C46.214 9.1622 45.923 9.58623 47.0428 11.0221C47.4286 10.4386 47.9784 9.75651 48.421 9.21563Z" fill="#FDFDFD"/>
<path d="M71.5678 9.20115C72.4556 9.07792 73.341 9.44455 73.8821 10.1597C74.4232 10.8748 74.5354 11.8268 74.1763 12.6485C73.8165 13.4703 73.0416 14.0334 72.149 14.1209C70.8076 14.2525 69.6073 13.2858 69.449 11.9462C69.2907 10.6066 70.2323 9.38645 71.5678 9.20115ZM71.8572 12.8447C72.5247 12.8543 73.0723 12.3179 73.0764 11.6499C73.0811 10.9821 72.5407 10.4386 71.8732 10.4395C71.2128 10.4405 70.677 10.974 70.6729 11.6344C70.6688 12.2949 71.1974 12.8353 71.8572 12.8447Z" fill="#FDFDFD"/>
<path d="M37.1323 9.22263C37.5088 9.21506 37.9118 9.18415 38.2853 9.23014C38.9828 9.31602 38.2135 11.9124 38.8713 12.701C38.9795 12.8308 39.1271 12.9107 39.2963 12.9214C39.5696 12.9385 39.9792 12.8252 40.1819 12.6386C40.2757 12.5523 40.3639 12.4422 40.403 12.3193C40.6051 11.6837 40.5109 10.0242 40.5356 9.25792C40.9374 9.20921 41.537 9.21099 41.9353 9.25768L41.9679 10.4596C41.9686 11.0269 41.9613 11.5438 41.9291 12.1199C41.8064 14.3153 38.6918 14.7394 37.4906 13.2466C36.9452 12.5688 37.0027 10.144 37.1323 9.22263Z" fill="#FDFDFD"/>
<path d="M32.5804 9.21002C33.6846 9.24389 34.8076 9.206 35.9223 9.2342C35.9533 9.54007 35.9464 10.1218 35.9509 10.4494C35.4137 10.4791 34.6594 10.4535 34.1062 10.4516C34.1136 10.6306 34.1001 10.846 34.0935 11.0278C34.6413 10.9919 35.0712 11.0087 35.6218 11.0297C35.6234 11.391 35.6425 11.6966 35.6684 12.0545C35.2627 12.0881 34.3652 11.9442 34.0984 12.2258L34.1187 12.516C34.1086 12.615 34.1216 12.6675 34.1378 12.7631C34.4736 12.9617 35.6019 12.838 36.0443 12.8014C36.0742 13.2772 36.0754 13.5932 36.0573 14.0696C35.2319 14.1324 33.5077 14.0785 32.6106 14.087C32.5304 13.381 32.553 12.4079 32.5518 11.6822C32.5505 10.9182 32.5253 9.96119 32.5804 9.21002Z" fill="#FDFDFD"/>
<path d="M51.1123 9.23464C52.1845 9.23085 53.3565 9.20981 54.4212 9.24657L54.4426 10.444C53.9189 10.4796 53.1351 10.4529 52.5925 10.4507C52.6137 10.6331 52.6005 10.8493 52.5952 11.0354C53.0494 11.0035 53.6357 11.032 54.1014 11.0436C54.1153 11.3799 54.1316 11.7161 54.1505 12.0521C53.7974 12.0748 52.8074 12.0063 52.5827 12.1809L52.614 12.3293L52.6076 12.794C52.8242 12.8957 54.1564 12.8573 54.4856 12.853C54.5369 13.2453 54.5321 13.6677 54.5371 14.0651C53.5468 14.1226 52.1069 14.0857 51.0869 14.0942C50.9971 13.2066 51.0364 10.1036 51.1123 9.23464Z" fill="#FDFDFD"/>
<path d="M66.7045 9.12462C67.1954 9.10299 67.9881 9.2543 68.4376 9.44551C68.4654 9.89979 68.4689 10.3101 68.4701 10.7648C66.9662 10.2532 65.0045 10.1671 65.8268 12.3806C66.1806 13.3328 68.2787 12.4958 68.4973 12.5423C68.5876 12.7121 68.564 12.9386 68.5622 13.1362C68.5764 13.3874 68.5333 13.6153 68.4967 13.8636C67.3478 14.2401 65.988 14.2816 64.9886 13.4991C64.5036 13.1131 64.1912 12.5503 64.1197 11.9341C63.9242 10.2736 65.1841 9.30176 66.7045 9.12462Z" fill="#FDFDFD"/>
<path d="M61.5821 9.22496C62.0606 9.21402 62.539 9.21828 63.0169 9.23778C63.0529 10.2949 63.0517 12.8323 63.0056 13.978C62.9673 14.0206 62.9348 14.0569 62.9076 14.0871L61.539 14.0832C61.5118 13.2721 61.4687 9.87801 61.5821 9.22496Z" fill="#FDFDFD"/>
<path d="M52.648 7.73484C53.0444 7.7258 53.4408 7.72053 53.8372 7.71912C53.5616 8.102 53.3357 8.38535 53.0303 8.74519C52.8117 8.90146 52.2703 8.86612 51.9805 8.87055C52.2033 8.44706 52.3898 8.13829 52.648 7.73484Z" fill="#FDFDFD"/>
</g>
<defs>
<clipPath id="clip0_37_2068">
<rect width="120.973" height="37" fill="white"/>
</clipPath>
</defs>
</svg>
