<svg width="74" height="20" viewBox="0 0 74 20" fill="none" xmlns="http://www.w3.org/2000/svg">
<path d="M16.7593 0C16.8703 0.147495 16.8211 2.14843 16.8192 2.49155L19.3407 2.48766L16.8216 5.02201L15.4908 5.01673C15.2861 5.21663 15.1226 5.38905 14.9317 5.59939C15.7103 6.65212 16.2413 7.59388 16.5588 8.8852C17.1076 11.0876 16.7533 13.418 15.5746 15.3577C14.4029 17.2825 12.509 18.6578 10.3161 19.1763C8.03958 19.7191 5.82215 19.2628 3.84981 18.046C3.67566 17.934 3.50674 17.8141 3.34354 17.6867C1.52496 16.3053 0.341945 14.2474 0.0632192 11.9807C-0.2099 9.75535 0.408893 7.51233 1.78443 5.74177C3.17678 3.95412 5.22934 2.8013 7.48046 2.54262C9.78648 2.267 11.919 2.98755 13.7251 4.40455L14.2709 3.8532L14.2686 2.52508C14.9844 1.73869 15.9937 0.772061 16.7593 0Z" fill="#FE293B"/>
<path d="M8.19436 4.19134C9.76734 4.10069 11.2749 4.68651 12.5242 5.60884C12.1218 6.00809 11.7229 6.41088 11.3276 6.81717C11.8087 7.15657 12.1479 7.55371 12.5316 7.99492L13.7133 6.79508C14.0711 7.2706 14.3691 7.78847 14.6003 8.33687C15.3052 10.0052 15.3049 11.8878 14.5996 13.5559C13.8496 15.3463 12.5389 16.5415 10.7652 17.2724C10.2143 17.4888 9.50849 17.6333 8.91973 17.6832C7.17921 17.8198 5.45478 17.2666 4.1185 16.143C0.678583 13.2401 0.942155 7.85519 4.66629 5.33289C5.79984 4.56522 6.85046 4.29848 8.19436 4.19134Z" fill="#211925"/>
<path d="M7.80418 5.90632C9.22912 5.79929 10.1334 6.03732 11.3239 6.80861C10.9335 7.21401 10.5144 7.62541 10.1168 8.02632C9.92763 7.92562 9.73117 7.83924 9.52911 7.76802C8.69437 7.46421 7.77254 7.50928 6.9715 7.89304C6.15364 8.28589 5.5283 8.99134 5.23642 9.85039C4.93543 10.6994 4.99167 11.6342 5.39224 12.441C6.69894 15.1187 10.6458 14.8826 11.5836 12.0151C11.9085 11.0216 11.7733 10.1551 11.305 9.23149C10.4673 9.96719 9.75432 10.9515 8.84337 11.6004C8.60872 11.7675 8.06798 11.8829 7.85203 11.6266C7.113 10.7496 8.07475 10.0607 8.66845 9.48123C9.14941 8.98918 9.63713 8.50384 10.1316 8.02538C10.6579 8.39331 10.9394 8.69368 11.307 9.20911L12.517 8.00084C12.9634 8.67331 13.2524 9.32319 13.3781 10.1262C13.599 11.4683 13.2734 12.8431 12.474 13.9436C10.8286 16.1775 7.67001 16.6988 5.43216 15.043C4.33968 14.2372 3.61603 13.0268 3.42323 11.6831C3.22578 10.3346 3.57361 8.96309 4.38975 7.87172C5.22387 6.76264 6.43887 6.0985 7.80418 5.90632Z" fill="#FE293B"/>
<path d="M13.708 4.42444C13.9526 4.51914 14.6932 5.34405 14.9124 5.58231C14.5755 5.94963 14.1105 6.39673 13.7536 6.75794C13.7098 6.75456 12.6598 5.70965 12.541 5.6029C12.9046 5.21443 13.3298 4.80481 13.708 4.42444Z" fill="#211925"/>
<path d="M32.4271 6.68057C33.4236 6.39523 34.5451 6.43135 35.5092 6.81533C38.3447 7.95655 38.8949 11.2701 40.9184 13.2958C43.0784 15.4584 46.8955 13.9478 46.2904 10.7177C46.1854 10.1597 45.8649 9.61289 45.4437 9.22256C44.8582 8.68797 44.0859 8.40542 43.2934 8.43643C42.5023 8.47412 41.7579 8.82472 41.225 9.41104C40.499 10.2156 40.4387 11.0063 40.4809 12.0155C39.9235 11.3592 39.3983 10.2228 38.8793 9.45791C38.9752 9.27795 39.0758 9.09996 39.1801 8.92471C40.3835 6.92285 42.7403 6.01083 44.9779 6.75576C45.5013 6.93021 45.8803 7.15075 46.351 7.4374L46.3568 6.50772C47.0023 6.498 47.6725 6.50791 48.3197 6.50869C48.3558 7.25056 48.3299 8.21226 48.3305 8.97061L48.3393 16.081C47.7143 16.104 47.0129 16.0888 46.3812 16.0868L46.3607 15.2831C44.2085 16.6959 41.6823 16.5653 39.7338 14.8378C39.0388 14.2219 38.5651 13.4702 38.0238 12.7265C37.9933 13.8542 38.0152 15.1017 38.0141 16.2382C37.3374 16.2461 36.6599 16.2454 35.9838 16.2362C35.9455 14.2872 36.0441 12.318 35.9525 10.3749C35.9074 9.42155 34.9942 8.63164 34.0853 8.52139C32.6228 8.34414 31.6159 9.2893 30.9086 10.4198C29.3988 12.8334 28.1138 15.8455 24.9008 16.205C22.1015 16.5415 19.665 14.6845 19.3471 11.873C19.2118 10.587 19.5929 9.29984 20.4076 8.2958C21.2463 7.2529 22.4024 6.66262 23.724 6.51846C26.3628 6.3688 27.8836 7.70868 28.8549 10.036L29.5766 8.92568L29.5785 6.50869C30.0858 6.4987 30.603 6.48383 31.1117 6.49209C31.7755 6.5028 31.3477 6.71561 31.5844 6.98623C31.8323 6.97216 32.1748 6.75283 32.4271 6.68057ZM27.0492 10.8993C26.7892 9.29987 25.2772 8.21704 23.6791 8.48525C22.0926 8.75155 21.0188 10.2499 21.2768 11.8378C21.5349 13.4255 23.0275 14.5063 24.6166 14.2567C26.2176 14.0053 27.3091 12.4991 27.0492 10.8993Z" fill="#FEFEFE"/>
<path d="M51.3037 3.66237L51.3105 7.261C55.3694 4.75035 58.6229 7.36024 60.4531 11.011C61.2086 12.5184 62.468 14.4396 64.3838 14.26C66.3466 14.076 67.1874 12.0083 68.1084 10.5364C69.6132 7.98718 70.8908 6.46498 73.956 6.27369L73.9638 8.26197C73.1045 8.31754 72.7451 8.41298 71.9951 8.82155C72.0234 10.5967 72.0007 12.4374 72.0029 14.218C72.6523 14.217 73.3136 14.2078 73.9619 14.2356L73.959 16.2327C69.9494 16.2723 69.8446 16.3334 69.9668 12.0296C69.9723 11.8208 69.9617 11.5474 69.959 11.3313C68.9481 12.7067 68.4202 14.4597 66.7822 15.4973C65.6797 16.1959 64.3425 16.4067 63.0713 16.138C61.0314 15.7065 60.1889 14.3282 59.1425 12.72C58.976 13.0976 58.8109 13.4727 58.5967 13.8264C57.9 14.9753 56.771 15.797 55.4638 16.1067C53.8801 16.4855 52.6351 16.0889 51.2978 15.262L51.289 16.0755C50.6252 16.0878 49.9607 16.0866 49.2968 16.0715C49.2275 12.0161 49.2953 7.74042 49.2959 3.66334C49.9508 3.64836 50.6454 3.6607 51.3037 3.66237ZM57.2939 10.9075C57.0941 9.25345 55.5852 8.07742 53.9326 8.28737C52.2935 8.49561 51.1311 9.98824 51.3291 11.6282C51.5278 13.2683 53.0129 14.4407 54.6543 14.2522C56.3089 14.062 57.4941 12.5614 57.2939 10.9075Z" fill="#FE293B"/>
<path d="M63.8779 6.29916C65.8053 6.09954 67.5914 7.34695 68.5234 8.95834C67.9339 9.99645 67.165 11.2508 66.5205 12.2562L64.5352 12.2523L61.7637 12.2542C61.1114 11.2768 60.374 9.98254 59.7539 8.95639C60.7714 7.29312 61.9285 6.51449 63.8779 6.29916ZM63.8486 8.29135C62.5891 8.49413 61.8039 9.09281 61.3281 10.2787C62.3966 10.2868 63.4661 10.2889 64.5352 10.2855C65.3273 10.2843 66.1732 10.298 66.9609 10.2787C66.3959 8.95236 65.3511 8.17116 63.8486 8.29135Z" fill="#FE293B"/>
<path d="M31.5571 10.3641C31.6742 10.646 31.6059 15.5616 31.6039 16.236C30.967 16.2544 30.2943 16.241 29.6546 16.2385C29.5251 16.0148 29.5826 13.9106 29.5856 13.4951C30.05 12.7727 31.0763 10.8757 31.5571 10.3641Z" fill="#FEFEFE"/>
<path d="M69.9767 3.66418C70.6406 3.64953 71.335 3.66035 72.0017 3.66218L72.0056 6.11848C71.6981 6.20497 71.5032 6.29867 71.2162 6.42935C70.7949 6.63863 70.3819 6.94605 69.9939 7.21812C69.9273 6.24394 69.97 4.67 69.9767 3.66418Z" fill="#FE293B"/>
</svg>
