<svg width="79" height="24" viewBox="0 0 79 24" fill="none" xmlns="http://www.w3.org/2000/svg">
<g clip-path="url(#clip0_40_2769)">
<path d="M51.7215 9.93169C51.8797 9.56158 52.8811 7.26595 53.0741 7.10057C53.3206 7.00202 53.9205 7.03887 54.2045 7.04356C54.2068 7.65587 54.2529 13.4418 54.1692 13.5289C54.0671 13.6354 53.7654 13.612 53.6295 13.6094C53.4207 13.605 53.2123 13.5995 53.0035 13.5928C52.9525 12.4935 52.9667 11.392 53.0457 10.2944C53.1102 9.98659 53.129 9.70178 53.1459 9.38913L52.8592 10.0198C52.6811 10.3685 52.0056 11.9168 51.778 12.0582C51.441 12.0554 50.4783 9.83172 50.2642 9.43044C50.4676 10.6804 50.4392 12.2988 50.4323 13.5771C50.0661 13.6254 49.6389 13.6038 49.2651 13.5956C49.2056 11.6085 49.2662 9.59659 49.2497 7.60731C49.2486 7.43686 49.2555 7.21915 49.277 7.05047C49.5698 7.04321 50.1156 6.99492 50.3513 7.12506C50.6541 7.49955 51.0825 8.62126 51.3201 9.1014C51.4352 9.33346 51.6394 9.70273 51.7215 9.93169Z" fill="#FEFEFE"/>
<path d="M60.2439 7.04294C61.7016 7.03534 63.9674 6.69966 64.1328 8.72057C64.2813 10.535 63.9286 11.394 62.0436 11.6202C61.826 11.6345 61.5992 11.6302 61.3804 11.6294C61.3792 12.0011 61.4291 13.2362 61.3255 13.5294C61.1712 13.6535 60.4101 13.6043 60.1663 13.6021C60.1053 12.8986 60.1533 11.7913 60.1437 11.0484C60.128 9.8422 60.1479 8.60252 60.1537 7.39417C60.1541 7.27992 60.1579 7.12313 60.2439 7.04294ZM61.37 10.4289C61.8494 10.4418 62.2728 10.4866 62.6988 10.2331C63.0113 9.8518 63.0477 8.65715 62.6432 8.31575C62.3484 8.06695 61.7496 8.1423 61.3773 8.12C61.3769 8.80741 61.4069 9.76385 61.37 10.4289Z" fill="#FEFEFE"/>
<path d="M40.709 7.0402C41.5465 6.86591 42.9544 7.0989 43.2634 7.99803C43.3421 8.2271 43.4729 8.68179 43.3812 8.90859C43.2472 9.02883 42.5456 8.96813 42.2892 8.9808C42.2132 8.5941 42.1921 8.45114 41.9307 8.17516C40.4511 7.72918 40.0673 8.33301 40.1686 9.7074C40.2292 10.5276 40.0458 11.5779 40.319 12.362C41.0015 12.6745 41.4344 12.6545 42.0919 12.3244C42.374 11.8351 42.313 11.5098 42.3053 10.9471C41.9384 10.9667 41.5653 10.9552 41.1976 10.9487C41.1811 10.7045 41.185 10.3759 41.1811 10.1252C41.1803 10.0582 41.1949 10.0035 41.2084 9.93809C41.3423 9.82649 43.0922 9.89471 43.3904 9.9106C43.4238 10.29 43.4069 10.6709 43.4207 11.0462C43.471 12.4032 43.2991 13.4353 41.7154 13.6101C38.3857 13.9775 39.0493 11.6015 38.9902 9.2936C38.9545 7.88581 39.2428 7.21008 40.709 7.0402Z" fill="#FEFEFE"/>
<path d="M70.8772 7.05216C71.2487 7.0373 71.6921 7.0515 72.0644 7.06321L73.2607 11.5193C73.4607 12.2617 73.6522 12.8055 73.82 13.5822C73.4204 13.6034 73.0136 13.6021 72.6132 13.6049C72.4582 13.2431 72.4586 12.8496 72.2716 12.518C72.2344 12.4522 72.112 12.4591 72.0244 12.4502C71.5604 12.4521 71.0964 12.4494 70.6327 12.4423C70.5129 12.871 70.4492 13.1714 70.2654 13.5803C69.9157 13.6111 69.4221 13.5936 69.0605 13.5904C69.5012 11.8711 69.9756 10.1606 70.4842 8.4601C70.5966 8.08173 70.7313 7.37766 70.8772 7.05216ZM70.8952 11.2491L71.4752 11.265L71.9876 11.2644C71.8183 10.7763 71.5189 9.16635 71.4272 9.00373C71.3217 9.66446 71.0868 10.5894 70.8952 11.2491Z" fill="#FEFEFE"/>
<path d="M45.639 7.05735C46.0366 7.04164 46.4062 7.05358 46.8027 7.06491C47.0511 7.72786 47.3217 9.03027 47.5266 9.77123L48.2267 12.3295C48.3515 12.7779 48.4908 13.1137 48.5775 13.5847C48.1872 13.6114 47.7546 13.5989 47.3604 13.5955C47.2426 13.2741 47.2088 12.8022 47.0242 12.5119C46.9943 12.4652 46.9079 12.4781 46.8357 12.4748C46.3514 12.4774 45.8612 12.4854 45.3776 12.4612C45.018 13.864 45.1473 13.5753 43.8262 13.6036C44.0561 12.6355 44.3017 11.7552 44.5815 10.8033C44.8072 10.0356 44.9715 9.22329 45.2268 8.45792C45.3676 8.03567 45.4613 7.45192 45.639 7.05735ZM45.6731 11.247C45.8255 11.2517 46.0151 11.2631 46.1641 11.261L46.7229 11.2487C46.6104 10.9189 46.2846 9.1469 46.1905 9.05035C46.0128 9.80824 45.8386 10.4783 45.6731 11.247Z" fill="#FEFEFE"/>
<path d="M55.3536 7.0199C55.6876 7.05879 56.2115 7.03882 56.5569 7.04355C57.3971 7.05506 58.2646 7.01564 59.1032 7.04907C59.1531 7.39558 59.1393 7.70788 59.1336 8.05688C58.3168 8.07903 57.3944 8.06448 56.5723 8.06114C56.5734 8.48147 56.5946 9.33537 56.5523 9.72223C57.186 9.71651 58.1471 9.68491 58.7509 9.73585C58.7996 10.1322 58.7808 10.4233 58.7609 10.8191C58.4016 10.8659 56.95 10.8594 56.5696 10.8328L56.5704 11.3921C56.5731 11.74 56.5873 12.1777 56.55 12.5153C57.2724 12.5222 58.5617 12.4801 59.2149 12.5465C59.2376 12.782 59.3266 13.416 59.1742 13.5734C58.8894 13.6227 58.1855 13.6014 57.8604 13.6008C57.0237 13.5967 56.1873 13.5968 55.3506 13.6011C55.3433 13.3295 55.3402 13.0532 55.3437 12.7815C55.3675 10.8671 55.3038 8.93205 55.3536 7.0199Z" fill="#FEFEFE"/>
<path d="M65.188 7.04354C65.5392 7.03486 65.8989 7.04269 66.2512 7.04669C66.3011 8.54354 66.2785 10.0398 66.2827 11.5374C66.2838 11.8496 66.2965 12.2052 66.2577 12.5116C66.898 12.524 68.1934 12.4798 68.7553 12.5504C68.7952 12.8199 68.8535 13.3746 68.7338 13.6125C68.3753 13.6349 67.927 13.604 67.5535 13.6018L65.1005 13.5981C65.0314 11.5131 65.0798 9.35924 65.0971 7.26927C65.0978 7.15813 65.1178 7.12205 65.188 7.04354Z" fill="#FEFEFE"/>
<path d="M62.3397 15.4203C63.0532 15.2953 63.7342 15.7691 63.865 16.4817C63.9955 17.1942 63.5277 17.8789 62.816 18.0156C62.0968 18.1538 61.4024 17.6789 61.27 16.9581C61.1376 16.2372 61.6181 15.5467 62.3397 15.4203ZM62.8118 17.4292C63.6463 17.0282 63.3649 15.8404 62.319 15.9829C61.5655 16.3577 61.6281 17.4952 62.8118 17.4292Z" fill="#FEFEFE"/>
<path d="M52.9782 15.4777C53.9731 15.4077 55.239 15.3542 55.2321 16.7121C55.2297 17.169 55.1169 17.4113 54.7999 17.7386C54.5174 17.976 53.2607 18.1272 52.9997 17.937C52.8116 17.7998 52.8416 15.6853 52.9782 15.4777ZM53.4768 17.3986C53.861 17.4044 54.157 17.4661 54.4621 17.2615C54.7242 16.8956 54.7749 16.4382 54.3711 16.1541C54.0944 15.9591 53.828 15.9741 53.5037 15.9837C53.5006 16.3816 53.5144 17.0181 53.4768 17.3986Z" fill="#FEFEFE"/>
<path d="M19.8914 12.6886C20.4572 12.5824 21.0039 12.9485 21.1213 13.5122C21.2387 14.0759 20.8836 14.6298 20.3225 14.7584C19.9495 14.8438 19.5594 14.721 19.3027 14.4373C19.0459 14.1535 18.9625 13.753 19.0846 13.3903C19.2067 13.0276 19.5153 12.7592 19.8914 12.6886Z" fill="#FEFEFE"/>
<path d="M17.7131 10.5969C18.2734 10.4479 18.8483 10.7816 18.9969 11.342C19.1455 11.9025 18.8116 12.4773 18.2511 12.6256C17.9238 12.7122 17.5747 12.6354 17.3139 12.4195C17.053 12.2036 16.9123 11.875 16.9362 11.5371C16.9678 11.0899 17.2799 10.7121 17.7131 10.5969Z" fill="#FEFEFE"/>
<path d="M21.9776 10.5902C22.5398 10.4675 23.0957 10.822 23.2215 11.3837C23.3474 11.9454 22.9961 12.5033 22.4353 12.6324C22.0291 12.7259 21.6062 12.5694 21.3587 12.2341C21.1481 11.9486 21.0964 11.5759 21.2214 11.2439C21.3464 10.9119 21.631 10.6658 21.9776 10.5902Z" fill="#FEFEFE"/>
<path d="M19.7982 8.49419C20.3571 8.33337 20.9398 8.65934 21.0953 9.21983C21.2509 9.78032 20.9196 10.3601 20.3577 10.5104C19.8033 10.6588 19.2329 10.3327 19.0794 9.77955C18.9259 9.22643 19.2466 8.65289 19.7982 8.49419Z" fill="#FEFEFE"/>
<path d="M47.886 15.4658C49.11 15.4039 47.5229 17.7119 49.1376 17.4134C49.726 17.3046 49.2812 15.9333 49.5199 15.5382C49.6842 15.4087 49.8634 15.4224 50.0131 15.5675C50.0841 15.6962 50.0607 16.0447 50.06 16.21C50.0649 16.5955 50.1068 17.0304 49.9571 17.404C49.6282 18.2178 48.1523 18.2305 47.8702 17.4C47.752 17.0516 47.7355 15.7829 47.886 15.4658Z" fill="#FEFEFE"/>
<path d="M39.6724 15.4443C39.93 15.4259 40.3157 15.4499 40.5541 15.5577C40.6788 15.6142 40.8028 15.7887 40.7134 15.931C40.3472 16.1861 39.7208 15.8083 39.5059 16.1447C39.6348 16.4847 41.4964 16.506 40.5606 17.8343C40.4286 17.9041 40.2344 17.9604 40.0881 18.0078C39.8098 18.0386 39.35 18.0196 39.1051 17.856C38.9589 17.7583 38.9247 17.5318 39.0387 17.3932C39.289 17.3128 40.2017 17.5362 40.1964 17.2468C40.0067 16.9303 39.5581 16.931 39.299 16.7469C38.6284 16.2701 38.9858 15.5947 39.6724 15.4443Z" fill="#FEFEFE"/>
<path d="M43.2761 15.4745C43.683 15.4474 44.9523 15.3498 45.2221 15.6181C45.2754 15.7593 45.2689 15.7012 45.2371 15.8564C45.0785 16.015 44.7627 15.9956 44.5312 16.0087C44.5435 16.4485 44.5166 16.9999 44.522 17.464C44.5205 17.601 44.5162 17.7982 44.4333 17.9049C44.3335 17.9795 44.3101 17.9839 44.1854 17.991C43.83 17.8513 43.8971 17.432 43.8964 17.1066C43.896 16.7356 43.9056 16.3617 43.9113 15.9906C43.648 15.9929 43.2838 16.0544 43.1621 15.787C43.1671 15.6395 43.2009 15.5961 43.2761 15.4745Z" fill="#FEFEFE"/>
<path d="M58.0502 15.462C58.2041 15.4523 58.4966 15.4429 58.5027 15.6567C58.5158 16.1144 58.6244 17.6507 58.4141 17.9793C58.3438 17.9876 58.1247 18.0013 58.0982 17.9689C57.8644 17.6829 57.9301 15.7048 58.0502 15.462Z" fill="#FEFEFE"/>
<path d="M52.8594 10.0198L53.1461 9.38916C53.1292 9.70181 53.1104 9.98662 53.0459 10.2944C53.0309 10.1923 53.0555 10.1023 53.0156 10.015L52.8594 10.0198Z" fill="#FEFEFE" fill-opacity="0.027451"/>
<path d="M6.46642 0H25.2343C25.5573 0.144562 26.2732 0.142091 26.7063 0.274616C28.759 0.888326 30.4191 2.40617 31.214 4.39612C31.7393 5.70924 31.6781 7.17899 31.6775 8.56582L31.6761 11.7661L31.6791 14.7444C31.6804 16.1955 31.7278 17.6378 31.1391 19.0024C30.4117 20.6961 29.0462 22.0348 27.3386 22.7283C26.3229 23.1302 25.2616 23.2033 24.1813 23.1805C23.1959 23.1597 22.2017 23.202 21.2173 23.1955C21.1522 22.3763 21.2115 21.1956 21.1922 20.351C21.1817 19.8936 21.1705 18.444 21.2313 18.0417C22.7701 18.0478 24.1043 18.2113 25.3165 17.0184C26.2252 16.1242 26.4521 15.2335 26.4536 13.9976L26.4506 10.528C26.4549 8.9354 26.6461 7.55605 25.4148 6.29426C24.2554 5.10621 23.2111 5.22273 21.6697 5.22227L19.0932 5.22173L9.38438 5.22231C8.14109 5.22288 7.28746 5.32569 6.34314 6.25721C5.29533 7.29082 5.30792 8.40274 5.30873 9.75705L5.31329 12.7093C5.31241 14.2802 5.09056 15.8024 6.36386 17.0021C7.52482 18.0961 8.67771 18.0518 10.1667 18.0407C10.3078 18.0397 10.4488 18.0378 10.5899 18.035C10.611 16.9856 10.5614 15.8097 10.649 14.7848C12.0299 14.7926 13.4632 14.7599 14.837 14.7878C14.8664 15.4488 14.8429 16.2188 14.8409 16.8884L14.8471 20.0836L14.85 22.1662C14.8502 22.4263 14.8642 23.0241 14.8275 23.2642H10.5767C10.3816 23.2036 9.57786 23.2056 9.30761 23.1984C7.06358 23.1383 5.46352 23.4545 3.41884 22.2305C1.76664 21.2415 0.722536 19.7736 0.231945 17.8983C0.0832536 17.3299 0.124698 16.6623 0 16.1801V6.99411C0.0772694 6.74096 0.0828713 6.22524 0.119441 5.94472C0.468478 3.26718 2.39417 1.0913 4.95841 0.293448C5.4507 0.140277 6.02372 0.152167 6.46642 0Z" fill="#FEFEFE"/>
<path d="M74.5115 7.04562C74.7023 7.04301 75.559 7.00178 75.6503 7.14382C76.0833 7.81675 76.3136 8.63422 76.6917 9.34812C77.0183 9.96508 77.2064 10.7365 77.5933 11.3197C77.4992 10.3867 77.3983 7.95971 77.4847 7.07019C77.8316 7.04147 78.2527 7.04823 78.6066 7.04573V13.5791C78.2389 13.6122 77.4992 13.7345 77.3315 13.3324C76.7926 12.0424 76.0772 10.7653 75.5544 9.47426C75.6373 10.75 75.6922 12.3121 75.6546 13.5751C75.3544 13.6377 74.8447 13.6017 74.5196 13.5947C74.452 12.9152 74.4831 11.547 74.4874 10.8378C74.4939 9.62095 74.4547 8.25182 74.5115 7.04562Z" fill="#FEFEFE"/>
</g>
<defs>
<clipPath id="clip0_40_2769">
<rect width="78.6074" height="23.2642" fill="white"/>
</clipPath>
</defs>
</svg>
