<svg width="78" height="11" viewBox="0 0 78 11" fill="none" xmlns="http://www.w3.org/2000/svg">
<path d="M22.2882 0.0653354C23.5917 -0.0135338 24.5699 0.256689 25.3596 1.35234C25.3747 1.33699 25.3896 1.32147 25.4049 1.30632C26.237 0.481318 27.6081 0.0473678 28.7564 0.0472412C29.6108 0.0471569 30.5332 0.248718 31.1447 0.889498C31.7095 1.48131 31.8513 2.20046 31.8212 2.99488C31.7675 4.41491 31.5791 5.85059 31.4491 7.26601C31.3884 7.92691 31.3553 9.06693 31.2083 9.67511C31.1832 9.77886 31.1363 9.87249 31.0505 9.93913C30.7797 10.1504 30.2909 10.0703 29.9738 10.0378C29.1929 9.95727 28.3063 9.74638 27.8713 9.01716C27.1098 7.74049 28.3905 4.43178 27.6488 3.5802C27.4897 3.39741 27.2661 3.32517 27.0301 3.31416C26.5356 3.29113 26.104 3.45532 25.8371 3.88893C25.4192 4.56801 25.3203 7.51443 25.2419 8.48068C25.2102 8.8725 25.2161 9.33685 25.0809 9.70758C25.0349 9.83369 24.9565 9.91467 24.8596 10.0041C24.4247 10.0538 21.8412 10.1007 21.5612 9.94925C21.4177 9.87207 21.3728 9.67975 21.3574 9.5296C21.3209 9.17363 21.4005 8.77085 21.4333 8.4132C21.512 7.5545 21.8912 4.58783 21.7081 3.93575C21.6413 3.69787 21.5079 3.48527 21.2809 3.37481C20.9614 3.21926 20.5172 3.31888 20.2006 3.446C19.8932 3.56949 19.6906 3.87784 19.5793 4.1783C19.3026 4.9244 19.1994 7.56588 19.1224 8.50219C19.091 8.88473 19.0989 9.36764 18.9287 9.71517C18.8642 9.84676 18.7772 9.95051 18.632 9.99227C18.3403 10.0762 15.6208 10.0602 15.4117 9.93997C15.3321 9.894 15.2987 9.80754 15.2799 9.72024C15.1516 9.12597 15.536 5.98934 15.6029 5.19728C15.7211 3.7991 15.7747 2.36073 15.9658 0.972502C15.9883 0.809533 16.0133 0.537412 16.119 0.411854C16.2359 0.27301 16.4833 0.219195 16.653 0.205108C17.7802 0.111393 18.817 0.52961 19.65 1.26229C20.4032 0.559597 21.2768 0.193255 22.2882 0.0653354Z" fill="white"/>
<path d="M45.5904 0.0935362C46.1585 0.0852697 48.9971 -0.0253285 49.2721 0.237091C49.3019 0.345378 49.3127 0.439567 49.233 0.539825C48.8104 1.07091 48.2109 1.63956 47.7311 2.12576L44.4967 5.40506C45.1665 6.4981 45.779 7.63795 46.4273 8.7449C46.572 8.99163 46.9459 9.57836 46.8912 9.84744C46.5201 10.1877 44.2709 9.95848 43.6578 10.034C42.7713 10.1432 42.4545 9.06082 42.0719 8.47635C41.508 7.5548 41.0287 6.50345 40.4635 5.5701C40.8907 7.21412 41.2887 8.85064 39.6803 10.0164C37.3164 10.0935 34.8946 9.98544 32.525 10.0213C32.361 10.0238 32.0478 9.97231 31.9176 9.86697C31.5885 8.9472 32.5635 3.03044 32.5191 1.64627C32.5144 1.49921 32.6352 1.09062 32.6988 0.958771C32.8113 0.700124 33.177 0.316241 33.4703 0.253692C34.0175 0.137125 35.3471 0.075883 35.8639 0.291778C36.1038 0.433696 36.2619 0.719578 36.316 0.981231C36.4484 1.62142 36.1975 2.63116 36.1949 3.21365C36.1913 4.01301 35.5209 9.32622 35.691 9.65897C35.9098 9.65763 36.4599 9.03977 36.6441 8.86307C37.8685 7.68721 39.0454 6.39923 40.2897 5.24783C39.8857 4.55037 37.699 0.919001 37.6666 0.431427C37.7325 0.328945 37.8499 0.230764 37.9772 0.225372C38.9987 0.181925 40.0337 0.21153 41.0611 0.200958C41.4736 0.196699 41.6864 0.436396 41.9117 0.762481C42.6009 1.99482 43.3546 3.25471 44.0123 4.50076L44.1598 4.40799C43.8999 3.38601 43.6741 2.39261 44.2565 1.43338C44.5424 0.962381 45.1254 0.378324 45.5904 0.0935362ZM44.0133 4.50076C44.11 4.69772 44.2167 4.8661 44.3307 5.05252C44.2781 4.80157 44.2371 4.65177 44.1598 4.40799L44.0133 4.50076Z" fill="white"/>
<path d="M3.25934 0.021767C4.78496 -0.103369 5.75408 0.3461 6.76545 1.47368C7.27532 0.952086 7.67931 0.571151 8.36088 0.285409C9.28331 -0.0979296 10.3204 -0.0950172 11.2407 0.293551C12.1808 0.690301 12.9205 1.45208 13.2913 2.40509C13.6547 3.33752 13.6259 4.37784 13.2116 5.28884C13.0525 5.64649 12.8353 5.97504 12.5689 6.26142C12.0212 6.85441 11.2153 7.45036 10.5431 8.02016C9.94301 8.5288 8.80061 9.63382 8.08178 9.97755C7.78393 10.1197 6.51377 10.0476 6.22274 9.87C5.34311 9.33352 6.82504 8.30822 7.22326 7.96618L9.49706 6.00077C9.93061 5.62498 10.792 4.93498 11.0958 4.49719C11.5099 3.69956 11.2436 2.84474 10.4581 2.41568C9.43327 1.83774 8.47029 2.7385 7.7817 3.39256C7.16776 3.98994 6.39843 4.03494 5.78259 3.35393C4.87848 2.3544 3.32549 1.54808 2.40549 3.08362C1.68259 4.29011 3.22225 5.25679 4.02358 5.96787C5.16094 6.97673 6.2875 7.50899 4.36609 8.6663C4.14431 8.80042 3.67973 8.65364 3.49954 8.47608C2.1777 7.17158 0.384843 6.37614 0.0525961 4.37362C-0.115487 3.3824 0.123074 2.36532 0.71402 1.55339C1.34277 0.687854 2.21437 0.18929 3.25934 0.021767Z" fill="white"/>
<path d="M63.7113 3.07991C64.2432 3.07687 64.1245 3.59207 64.0921 3.9178C64.4342 3.91451 64.7768 3.92341 65.1185 3.94514C65.1004 4.29843 65.0856 4.56378 65.0335 4.91194C64.7463 4.95402 64.2904 4.9429 63.9886 4.94417C63.9646 5.29802 63.9074 5.84173 63.8431 6.18831C63.7389 6.75086 63.8623 7.71063 64.6683 7.18245C64.7288 7.04667 64.633 6.36725 64.6771 6.08284C64.9353 4.4153 66.9565 3.5995 68.4564 4.01546C69.0325 4.17521 69.4098 4.48104 69.7748 4.97151C69.7832 4.71139 69.7544 4.15814 70.0013 4.04182C70.2649 3.91835 71.0352 3.95115 71.3099 4.02131C71.761 4.4575 70.8215 6.85308 71.5101 7.10042C73.1383 7.65329 72.495 4.93323 72.8695 4.11995C72.9721 3.90026 74.182 3.93997 74.3734 4.05549C74.4775 4.41341 74.2327 6.6693 74.1869 7.15901C75.6162 7.54829 75.8201 6.79866 74.7533 5.9969C73.9657 5.40481 74.718 4.27945 75.5189 4.09065C75.8817 4.00501 77.1452 3.77356 77.4447 4.08186C77.5329 4.31375 77.455 4.64565 77.4339 4.86409C77.3509 5.21223 76.4837 4.94958 76.2533 5.19417C75.8909 5.57919 76.7924 6.11521 76.9837 6.40999C77.1703 6.69831 77.2663 6.91403 77.2171 7.24495C77.0413 8.43122 75.6683 8.58234 74.7113 8.42756C73.9677 8.31659 73.353 8.00678 72.6615 7.88362L72.599 7.87288C71.9204 8.24985 71.6941 8.5157 70.8226 8.51448C69.09 8.51143 69.6142 6.65611 69.7064 5.4676C68.7098 6.04539 67.6306 6.63015 66.6156 7.17756C67.1251 7.32177 67.3544 7.39479 67.8988 7.37288C68.402 7.35291 68.8217 6.84075 69.1976 7.14046C69.2842 7.2956 69.2769 7.39223 69.2542 7.56721C69.1066 8.70528 67.1055 8.55378 66.3363 8.42854C65.9016 8.31679 65.6328 8.18216 65.2796 7.9178C64.5568 8.30912 63.0784 8.78998 62.4437 8.09163C61.9548 7.553 62.3013 5.65073 62.3724 4.94124L61.6351 4.94026C61.6586 5.50718 61.4486 7.84691 61.3246 8.39143C60.7819 8.43443 60.4245 8.44375 59.9046 8.25374C59.0359 8.47684 58.1699 8.77095 57.4378 8.02327C57.0312 8.19029 56.2798 8.47022 55.8841 8.36311C54.6677 7.98458 55.7045 6.18895 55.2787 5.39143C55.1616 5.17291 54.5149 5.17425 54.347 5.36018C54.2416 5.47771 54.121 5.59842 54.096 5.76936C53.9707 6.63518 53.9229 7.519 53.8333 8.39241C53.3721 8.43414 52.7364 8.41263 52.2718 8.39534C52.2668 7.73197 52.3704 7.0795 52.4212 6.39631C52.4625 5.84554 52.6023 5.1781 51.7845 5.20003C51.4811 5.20814 51.2132 5.53756 51.1605 5.81624C51.0037 6.64916 50.9998 7.559 50.8812 8.4012C50.3646 8.42226 49.8466 8.41746 49.3304 8.38753C49.3191 7.89521 49.5953 4.19749 49.764 4.01155C49.8346 3.93655 49.9088 3.91277 50.0101 3.90706C50.4734 3.88121 50.9949 4.16762 51.3216 4.47249C51.3993 4.40552 51.4789 4.34049 51.5599 4.27815C52.3647 3.66694 53.4254 3.66127 54.0423 4.53108C54.6983 3.9476 55.1964 3.82268 56.0521 3.89338C57.8296 4.04052 56.6223 6.73823 56.9564 7.17366L57.0316 7.17756C57.1757 7.00685 57.1677 6.73039 57.266 6.53303C57.8138 5.43318 59.1278 5.32767 60.1097 5.76448C60.1966 4.33845 58.9816 4.96198 58.0931 4.85237C57.6838 4.80168 57.9063 4.28441 57.9837 4.05745C58.8144 3.88945 60.8648 3.76168 61.4837 4.46663L61.515 4.50276L61.5697 4.4969C61.5903 4.30928 61.6085 4.12066 61.6224 3.93245C61.8675 3.91251 62.2087 3.92187 62.4613 3.92171C62.4798 3.60023 62.4174 3.20924 62.7533 3.10725C63.0807 3.11003 63.3885 3.08178 63.7113 3.07991ZM59.6722 6.83284C59.4135 6.02394 58.2528 6.42568 58.1546 6.49592C58.0563 6.56623 57.7699 6.73549 57.8597 7.24104C57.9498 7.74639 58.45 7.85388 58.6888 7.84456C59.1244 7.84448 59.9307 7.64197 59.6722 6.83284ZM68.7787 5.2596C68.4554 4.97399 67.6188 4.48788 66.8714 4.8553C65.8859 5.34006 65.9226 6.26612 66.014 6.7137L68.7787 5.2596Z" fill="#6E6E6E"/>
</svg>
