<svg width="47" height="47" viewBox="0 0 47 47" fill="none" xmlns="http://www.w3.org/2000/svg">
<path d="M32.1458 9.2287C32.4586 9.23639 32.8419 9.23477 33.1482 9.2541C33.1471 9.36944 33.1526 9.85057 33.1177 9.95111C32.7786 10.9288 32.6147 12.2054 31.8598 12.9506C31.7653 13.0439 31.4938 13.2624 31.4522 13.3293C30.091 14.0623 29.526 13.9456 27.9768 13.9488C25.1218 13.9548 23.2197 14.4425 21.247 16.5909C20.48 17.4261 19.3786 19.2518 19.1048 20.3325C18.7758 21.6309 18.3936 23.6647 18.5998 24.9707C18.7884 26.6128 19.0979 27.8335 20.3214 29.0202C23.1036 31.7185 27.2582 30.4242 30.1513 28.6198C31.174 27.982 32.0368 27.0845 33.208 26.6689C33.5427 26.5463 33.9882 26.4595 34.3428 26.3731C35.0812 25.9966 37.9347 26.0746 38.8125 26.1644C38.6168 26.6776 38.6496 27.1166 38.529 27.6228C38.2557 28.7694 37.7344 29.916 36.591 30.3988C35.4201 30.8931 34.2825 30.654 33.0496 30.7632C31.8178 30.8718 30.7032 31.3355 29.6167 31.8954C29.4043 32.0049 28.7122 32.3236 28.5917 32.4791C28.4565 32.5568 27.2429 33.3506 27.1942 33.4329C27.0991 33.4878 26.9805 33.5515 26.8918 33.6123C26.2161 33.9102 25.3206 34.6405 24.6187 35.0281C22.1676 36.3816 18.8725 37.0753 16.083 37.0395C13.0519 37.0008 9.53016 35.9541 7.46731 33.6561C6.29261 32.3842 5.92068 32.0581 5.22008 30.5143C4.20263 28.2723 4.30778 26.4438 4.35264 24.0904C4.4578 23.27 4.65389 22.2902 4.86657 21.4906C4.97934 21.0667 5.18468 20.575 5.32289 20.1353C5.43661 19.9579 5.5706 19.3715 5.70057 19.1214C5.96599 18.6106 6.29338 18.1304 6.54395 17.6193C6.57817 17.5907 7.31856 16.4991 7.39425 16.3874C8.26845 15.0973 9.0484 14.3434 10.2567 13.3909C12.3635 11.7301 14.6179 10.7067 17.2334 10.1406C19.2703 9.69425 21.3903 9.38397 23.4524 9.2407C24.0939 9.25749 24.7618 9.25459 25.405 9.24386C27.6448 9.20647 29.9091 9.28954 32.1458 9.2287Z" fill="#474747"/>
<path d="M38.8693 13.329C39.2572 13.3017 41.341 13.2923 41.6031 13.4562C41.7372 13.6026 41.8083 13.8483 41.8046 14.043C41.7795 15.3769 40.9461 17.077 39.6126 17.5272C38.9737 17.7429 38.0535 17.8273 37.3792 17.8495C35.5586 17.9093 33.8581 18.2156 32.2617 19.1315C30.9627 19.8931 29.7994 21.0702 28.3033 21.4828C27.6953 21.6505 27.0529 21.6796 26.4244 21.7197C25.1981 21.6514 23.5277 21.6479 23.3403 19.969C23.2814 19.4421 23.5456 18.9033 23.891 18.5178C25.3725 16.864 27.951 17.5778 29.903 17.2651C33.7151 16.5593 34.7113 13.5755 38.8693 13.329Z" fill="#F5F5F5"/>
<path d="M37.2536 19.8046C37.7961 19.7938 39.7263 19.7088 40.0384 19.9539C40.5746 20.3748 39.6406 22.6869 39.173 23.1467C37.3109 24.9778 34.6774 23.9445 32.2998 24.8615C29.3804 25.9874 28.0966 28.1383 24.8119 28.2799C22.7868 28.3338 20.6335 27.2727 22.329 24.9254C23.2569 23.6409 25.7434 24.0384 27.1565 23.8471C28.2667 23.7454 29.7786 23.4722 30.767 22.8955C33.0611 21.5571 34.3908 19.9088 37.2536 19.8046Z" fill="#F5F5F5"/>
</svg>
