<svg width="70" height="15" viewBox="0 0 70 15" fill="none" xmlns="http://www.w3.org/2000/svg">
<g clip-path="url(#clip0_39_2694)">
<path d="M44.358 0H47.8972V2.92543H49.2521V3.86733C50.308 3.00321 51.9905 2.52366 53.3269 2.59239C55.1201 2.6846 56.6505 3.41409 57.8641 4.75526C58.9415 2.67687 61.8893 2.17889 63.9423 2.56954C64.4793 2.67174 65.0657 2.82857 65.5907 2.89182C65.9815 2.93894 66.5357 2.90277 66.9481 2.90286L69.4899 2.90145V8.29354H69.1111C70.0144 9.42938 70.0715 10.8105 69.5972 12.1526C68.6071 14.9569 65.3381 15.188 62.8691 14.8443C62.4866 14.8079 62.0817 14.681 61.7031 14.6484C61.2019 14.6053 60.6495 14.6253 60.1438 14.6253L57.5418 14.6272V13.0984C57.1806 13.4556 56.7802 13.7686 56.3487 14.0312C54.1832 15.337 51.4666 15.2355 49.4377 13.8035C49.3829 13.7647 49.3162 13.7203 49.2521 13.7033C49.237 13.7612 49.23 13.8204 49.2216 13.8798C49.0718 14.0077 48.8721 14.1135 48.7041 14.2169C47.0673 15.2245 44.6383 15.2185 42.9795 14.2485L42.9793 14.6033H28.7611L28.7609 13.4329C27.9202 14.283 26.7165 14.7577 25.5629 14.8939C23.6802 15.1162 22.083 14.7645 20.5774 13.5642L20.5774 14.5985H0.0254935L0.0253906 10.5305H0.57804L0.578525 6.97423H0.0255309V2.92061L4.65043 2.92176C5.50093 2.92179 6.35658 2.93056 7.20697 2.91057C7.42694 2.88995 7.64483 2.8018 7.8622 2.75829C9.3847 2.45357 10.7035 2.58884 12.1016 3.2628C14.5423 2.08059 18.1592 2.39392 19.6237 4.99219C19.6624 4.94056 19.7022 4.8898 19.7431 4.83992C20.7961 3.55795 22.3032 2.75699 23.9327 2.6133C25.7764 2.44532 27.335 2.86552 28.7567 4.08315V2.90145L33.2019 2.90228L35.0485 2.90208C35.3689 2.90197 35.7371 2.90705 36.0554 2.88611C36.2327 2.85944 36.4169 2.79023 36.5916 2.75717C37.7567 2.53668 39.0609 2.4866 40.1515 3.03324C40.3428 3.12912 40.5125 3.23547 40.6908 3.34876C42.1992 2.43262 43.2892 1.42482 44.358 0Z" fill="#FEFEFE"/>
<path d="M12.1376 4.63807C12.3142 4.52389 12.4869 4.41981 12.672 4.32014C14.3976 3.39118 17.4345 3.46669 18.5805 5.33294C18.7697 5.63937 18.8956 5.98219 18.9506 6.3403C19.0184 6.77793 18.9818 7.79421 18.9801 8.28315L18.9793 11.7158H19.5247L19.5242 13.4179H13.9416L13.9427 11.7158L14.4992 11.7161C14.4729 11.5272 14.4866 10.8592 14.4869 10.6445L14.4907 8.4446C14.4915 7.85644 14.5755 7.29941 14.1596 6.83495C13.6929 6.51648 13.1805 6.54906 12.8572 7.05622C12.7625 7.20763 12.6992 7.37733 12.6711 7.55484C12.6157 7.9163 12.6343 8.6895 12.6342 9.08538L12.6348 11.7158H13.193L13.1928 13.4179H7.58595L7.58579 11.7158H8.13915C8.13926 10.375 8.10995 8.9112 8.14114 7.58096C8.04972 7.29585 8.13123 7.32677 7.93187 6.97735C7.62381 6.64296 7.21868 6.51333 6.80246 6.7553C6.39923 6.98971 6.28955 7.49825 6.28885 7.93549C6.28432 9.19552 6.28737 10.4558 6.28835 11.7158H6.83704L6.83505 13.4226C6.30375 13.4224 1.29834 13.4366 1.24369 13.3966C1.21672 12.8803 1.23378 12.2403 1.23443 11.715L1.80332 11.7152C1.75745 11.2182 1.78992 10.2459 1.79042 9.69791L1.79065 5.79353H1.23536L1.23576 4.07739H6.28902L6.28995 4.67002C7.87948 3.6037 10.6201 3.29343 12.1376 4.63807Z" fill="#004FA2"/>
<path d="M8.26558 6.35138C8.77056 6.87093 8.78688 7.35988 8.7854 8.05105L8.76798 12.3943H8.23299L8.23383 12.7545L7.67383 13.321L7.67705 11.8123L8.22753 11.8171C8.09976 11.47 8.18245 8.24539 8.17287 7.57478L8.14249 7.58092C8.05107 7.29581 8.13258 7.32672 7.93322 6.97731L7.87714 6.75813L8.26558 6.35138Z" fill="#4877BA"/>
<path d="M7.87695 6.75812C7.99996 6.92495 8.15398 7.13145 8.18176 7.34168C8.24437 7.8156 8.22174 8.41236 8.22233 8.89325L8.22734 11.8171C8.09958 11.47 8.18226 8.24538 8.17269 7.57477L8.14231 7.58091C8.05089 7.29579 8.1324 7.32671 7.93304 6.9773L7.87695 6.75812Z" fill="#185CAA"/>
<path d="M14.201 6.75154L14.6075 6.33429C15.1365 6.87197 15.147 7.38045 15.1496 8.1059L15.1419 12.3943H14.5878L14.5872 12.749L14.041 13.3169V11.8122C14.1779 11.8156 14.4152 11.8321 14.5392 11.7971C14.5628 11.746 14.5624 11.7637 14.5581 11.7164C14.5878 11.5696 14.576 10.617 14.5762 10.4219C14.5774 9.54179 14.5781 8.64951 14.573 7.76824C14.5709 7.38374 14.4824 7.02469 14.201 6.75154Z" fill="#4877BA"/>
<path d="M14.1602 6.8349L14.2003 6.75153C14.4816 7.02468 14.5701 7.38373 14.5723 7.76823C14.5773 8.6495 14.5767 9.54178 14.5755 10.4219C14.5752 10.617 14.587 11.5696 14.5573 11.7164L14.5552 11.7078C14.5175 11.5458 14.5284 11.0275 14.5286 10.8398L14.5325 8.62959C14.5328 8.45315 14.5419 7.76533 14.5201 7.63888C14.4981 8.61614 14.5248 9.60718 14.5168 10.5847C14.5154 10.7484 14.5282 11.6014 14.4997 11.7161C14.4734 11.5271 14.4871 10.8591 14.4875 10.6444L14.4913 8.44455C14.492 7.85639 14.576 7.29936 14.1602 6.8349Z" fill="#185CAA"/>
<path d="M1.86095 5.70591L2.43565 5.13141L2.4364 12.3943H1.89184L1.89079 12.7374C1.80578 12.8268 1.40545 13.2745 1.32227 13.2802L1.32465 11.8147H1.8717L1.87182 7.81819C1.8722 7.23494 1.90095 6.25331 1.86095 5.70591Z" fill="#4877BA"/>
<path d="M14.6594 3.88373C15.4787 3.83543 16.0317 3.83305 16.8167 4.13076L16.3145 4.63505C15.2943 4.43073 14.2397 4.50292 13.2552 4.84445C12.8409 5.00813 12.4567 5.24245 12.1188 5.53749C11.9902 5.4133 11.8084 5.26933 11.668 5.15228C12.6491 4.37779 13.4025 3.99427 14.6594 3.88373Z" fill="#4877BA"/>
<path d="M8.86482 3.88318C9.29582 3.79754 10.2217 3.91249 10.6507 3.99785C10.4663 4.18304 10.2693 4.36622 10.0798 4.54674C8.80305 4.35768 7.90629 4.58617 6.76258 5.15563C6.33449 5.39818 5.97928 5.65313 5.62695 5.9993L5.62771 5.37613C5.85028 5.19842 6.04992 4.99617 6.28784 4.82282C7.07607 4.24857 7.91621 3.985 8.86482 3.88318Z" fill="#4877BA"/>
<path d="M1.33203 4.18593L6.18827 4.17328L5.90468 4.48713L5.61959 4.78504H1.90434L1.33203 4.18593Z" fill="#4877BA"/>
<path d="M6.18257 11.8128L6.73927 11.8123L6.17736 12.3903C6.04823 12.4012 5.77131 12.3936 5.63086 12.3943C5.81014 12.2 6.0001 12.005 6.18257 11.8128Z" fill="#4877BA"/>
<path d="M12.5515 11.8124L13.0948 11.8123L12.5264 12.3937L11.9707 12.3943L12.5515 11.8124Z" fill="#4877BA"/>
<path d="M18.8958 11.8128L19.4446 11.8123C19.2923 11.9837 19.0315 12.2233 18.8615 12.3894C18.7872 12.3998 18.4197 12.394 18.3242 12.3943L18.8958 11.8128Z" fill="#4877BA"/>
<path d="M37.9415 3.76995C38.0014 3.76496 38.0613 3.76252 38.1213 3.76264C39.0195 3.76571 39.8701 3.99771 40.5186 4.66774C40.8751 5.04082 41.1268 5.50531 41.2475 6.01241C41.3964 6.63535 41.3536 7.78843 41.3522 8.47571L41.3413 11.7158H41.92L41.9189 13.4226H36.3077L36.3099 11.7158H36.8683L36.8685 8.98576C36.8694 8.46315 36.8999 7.89753 36.8277 7.38495C36.7159 6.67264 35.8381 6.39137 35.3509 6.90745C34.9127 7.37162 35.0191 8.26536 35.0236 8.87669V11.7158H35.5668L35.5618 13.4226H29.9654V11.7158H30.5193L30.5198 5.79352H29.9609V4.07738H35.0385V4.69485C35.9994 4.02805 36.7927 3.82123 37.9415 3.76995Z" fill="#004FA2"/>
<path d="M31.1894 5.18958C31.2054 5.27625 31.2009 5.73307 31.2009 5.84915L31.1984 7.23121L31.2034 12.3901H30.6588L30.6582 12.7486L30.119 13.2932C30.0621 13.1975 30.0912 11.9951 30.0929 11.8122H30.6316V5.65893C30.8176 5.50684 31.001 5.34388 31.1894 5.18958Z" fill="#4877BA"/>
<path d="M37.0385 6.38495C37.7089 6.73015 37.561 8.44543 37.5591 9.0826L37.5501 12.3943H37.0161L37.0167 12.7771C36.8677 12.8966 36.6617 13.0967 36.5155 13.2303L36.4662 13.2748L36.4298 13.2658C36.3867 13.1098 36.4069 12.0577 36.4083 11.8123H36.9873L36.9898 8.98196C36.9915 8.28097 37.1267 7.32094 36.6435 6.79362L37.0385 6.38495Z" fill="#4877BA"/>
<path d="M37.5282 3.91221C37.9924 3.81535 38.8708 3.92692 39.3353 4.07193L38.8013 4.6156C37.5335 4.43942 36.6716 4.6403 35.5217 5.18035C35.0364 5.45222 34.7517 5.61854 34.3496 6.00352L34.3502 5.44381C35.4063 4.55486 36.0968 4.06439 37.5282 3.91221Z" fill="#4877BA"/>
<path d="M30.0625 4.18068C30.6225 4.15888 31.2609 4.17259 31.8265 4.17262L34.9437 4.17339C34.8516 4.26824 34.7587 4.37559 34.6699 4.4748L34.3762 4.78503H30.6413L30.0625 4.18068Z" fill="#4877BA"/>
<path d="M41.2321 11.8127L41.7888 11.8123L41.2162 12.3943H40.6738C40.79 12.2513 41.0924 11.9573 41.2321 11.8127Z" fill="#4877BA"/>
<path d="M34.9328 11.8125L35.4763 11.8123L34.9017 12.3941L34.3691 12.3943L34.9328 11.8125Z" fill="#4877BA"/>
<path d="M52.9254 3.76965C55.5457 3.5922 58.0354 5.60989 58.2807 8.33048C58.3966 9.59811 58.0088 10.8601 57.2052 11.8313C56.2258 13.0378 54.9498 13.5946 53.4527 13.7369C52.0219 13.77 50.7638 13.4092 49.6615 12.4342C48.6938 11.5897 48.0963 10.3838 48.0025 9.08524C47.9123 7.81563 48.3233 6.56214 49.1429 5.60533C50.1447 4.42331 51.4274 3.87832 52.9254 3.76965Z" fill="#004FA2"/>
<path d="M52.963 6.08334C53.614 6.01738 53.9696 6.38157 54.1037 7.01679C54.3143 8.01459 54.5713 11.1279 53.3264 11.4699C52.7096 11.5434 52.3529 11.1647 52.2148 10.5755C51.9721 9.53988 51.7148 6.46411 52.963 6.08334Z" fill="#FEFEFE"/>
<path d="M52.605 3.94046C53.6923 3.85035 54.4634 4.00198 55.4518 4.44602L55.0379 4.86998C53.3635 4.06583 51.1737 4.52601 49.8479 5.82326C49.0518 6.602 48.6707 7.74751 48.6618 8.86152C48.6752 9.60642 48.8438 10.1064 49.1834 10.7525C49.0473 10.8925 48.9057 11.0235 48.7634 11.1568C47.4012 8.75348 48.2264 5.95895 50.5725 4.56825C51.2131 4.18849 51.8759 4.0391 52.605 3.94046Z" fill="#4877BA"/>
<path d="M54.1625 5.76416C54.8197 6.28127 54.942 7.53605 54.9375 8.3129C54.93 9.61205 54.9854 12.1384 53.2203 12.1809C51.4745 12.223 51.3591 10.1486 51.3482 8.84148C51.3457 8.79198 51.3451 8.74239 51.3463 8.69283C51.3521 8.49003 51.7511 8.17661 51.9166 8.01628C51.9049 8.27057 51.8956 8.52499 51.8883 8.77945C51.8701 9.69212 51.9541 11.8862 53.3491 11.5804C53.5238 11.5421 53.7008 11.4447 53.8268 11.3167C54.3075 10.8272 54.3957 9.47105 54.3753 8.87888C54.3423 7.91673 54.4425 6.85517 53.7627 6.15023L54.1625 5.76416Z" fill="#4877BA"/>
<path d="M62.285 3.71416C63.5478 3.58688 65.6254 4.15797 66.8118 4.62813L66.814 4.07738H68.4366V7.32822C68.0371 7.32595 67.4802 7.36378 67.0921 7.32724C66.1824 6.46447 64.5536 5.79784 63.3129 5.64328C63.132 5.62587 62.6628 5.7108 62.6885 5.97059C62.7585 6.50477 63.9597 6.75417 64.3881 6.89499C65.9715 7.41532 68.8323 8.3245 68.8382 10.418C68.8449 12.9175 66.9711 13.6794 64.8501 13.7509C63.1197 13.7604 62.1117 13.4973 60.5364 12.8152V13.4085H58.7579V10.0096H60.3032C60.3102 10.0168 60.3169 10.0239 60.3239 10.031C61.2723 10.985 62.8887 11.6328 64.2176 11.711C64.8263 11.7068 64.9355 11.2144 64.3965 10.9465C62.4766 9.99216 58.7148 9.68586 58.5787 6.87761C58.4698 4.63384 60.3726 3.80416 62.285 3.71416Z" fill="#004FA2"/>
<path d="M62.2187 3.85539C63.8002 3.76246 65.4673 4.2418 66.9275 4.82967V4.17337H68.3471C68.1844 4.37764 68.0231 4.58308 67.8635 4.78966H67.303L67.2974 5.67237C65.5863 4.62647 63.1128 4.13428 61.1743 4.54513C61.143 4.55222 61.1116 4.55999 61.0805 4.56845C59.8177 4.91121 58.9794 5.87084 59.2888 7.30287C59.4168 7.89458 59.8555 8.31727 60.3581 8.61409L60.0616 9.03463C59.9082 8.93867 59.7623 8.82977 59.6265 8.70902C58.5549 7.77251 58.3634 6.14867 59.2866 5.01469C59.9491 4.20131 61.2343 3.92939 62.2187 3.85539Z" fill="#4877BA"/>
<path d="M58.8711 10.153H60.2373C61.1274 11.0557 62.8494 11.765 64.1119 11.8469C64.5837 11.8774 64.6918 11.6605 64.9404 11.3257C65.023 11.2144 65.1877 11.0499 65.289 10.9482C65.4259 11.3932 65.4223 11.8667 65.0339 12.1808C64.6545 12.4875 64.1469 12.434 63.6981 12.3815C62.4862 12.2421 60.907 11.5803 60.0189 10.7266H59.402L59.3922 12.7433C59.2133 12.9306 59.0344 13.1279 58.8574 13.3182L58.8711 10.153Z" fill="#4877BA"/>
<path d="M62.6576 6.30066C62.6744 6.30513 62.8612 6.43893 62.9021 6.46523C63.1838 6.64678 63.5192 6.78789 63.8412 6.87651C65.2745 7.27084 66.4505 7.70573 67.6822 8.56623L67.2746 8.97201C67.2849 8.97169 66.0031 8.27091 65.8569 8.19166C64.969 7.71009 62.9609 7.38083 62.2637 6.68415C62.376 6.56326 62.5358 6.41753 62.6576 6.30066Z" fill="#4877BA"/>
<path d="M24.2961 3.76951C26.7257 3.51067 29.229 5.2955 29.6852 7.76336C29.7944 8.35481 29.8044 8.77102 29.7904 9.36446L23.7605 9.36457C23.7822 10.6588 24.2258 11.7749 25.7854 11.4931C26.3501 11.391 26.6968 11.0355 27.0036 10.5589L29.5034 10.5683C29.4063 10.7986 29.3279 10.9602 29.2106 11.1807C29.054 11.4585 28.8734 11.7212 28.6707 11.9657C26.8568 14.1345 23.3156 14.4196 21.2127 12.527C17.7993 9.45492 19.8375 4.10364 24.2961 3.76951Z" fill="#004FA2"/>
<path d="M24.0967 3.88362C25.0249 3.79755 26.3279 3.97563 27.1333 4.48136L26.7183 4.90898C26.0283 4.61489 25.4502 4.44875 24.6913 4.44083C23.4695 4.43383 22.2939 4.91793 21.4168 5.78914C20.5471 6.66335 20.1769 7.65599 20.1647 8.888C20.2211 9.67623 20.3408 10.2372 20.7303 10.9325L20.3268 11.3347C20.2571 11.2319 20.1939 11.1124 20.1383 11.0009C18.5543 7.81953 20.735 4.23665 24.0967 3.88362Z" fill="#4877BA"/>
<path d="M23.1363 8.73608C23.2168 8.78387 23.5865 9.15204 23.6771 9.23955C23.5979 9.9617 23.7984 10.9952 24.4524 11.3842C25.3972 11.9461 26.4974 11.5795 27.0613 10.6697L29.3319 10.6704L28.9959 10.8826C28.8159 10.9846 28.6008 11.1264 28.4214 11.2375H27.3522C26.574 12.3226 24.7394 12.6147 23.7806 11.6241C23.1059 10.9269 23.1125 9.65498 23.1363 8.73608Z" fill="#4877BA"/>
<path d="M24.7881 6.06039C25.7742 5.98895 25.9271 7.10583 25.9314 7.85351H24.9624H23.7743C23.7609 7.09141 23.8942 6.15994 24.7881 6.06039Z" fill="#FEFEFE"/>
<path d="M25.8765 5.75885C26.6053 6.39923 26.6301 7.64862 26.5957 8.54633H23.2898C23.2651 8.54633 23.1998 8.53784 23.1719 8.53491C23.1712 8.44179 23.6107 8.02712 23.6938 7.94099H26.0143C26.0343 7.19102 25.9693 6.72461 25.4856 6.14882L25.8765 5.75885Z" fill="#4877BA"/>
<path d="M44.9902 1.1759H46.8405V4.07736H48.1934V5.79349H46.8405L46.8394 9.08724C46.8394 9.65285 46.8321 10.2169 46.8497 10.7822C46.8741 11.5738 47.643 11.4666 48.1803 11.3603V13.2639C47.692 13.6231 47.0365 13.6797 46.4566 13.734C46.2953 13.7397 46.1338 13.7428 45.9722 13.7435C44.927 13.7474 43.9164 13.6258 43.1341 12.8414C42.1754 11.8801 42.3613 10.4606 42.3616 9.21108L42.3613 5.79349H41.8047L41.8052 4.09677C43.145 3.22322 43.9702 2.42796 44.9902 1.1759Z" fill="#004FA2"/>
<path d="M42.9958 5.15814C43.0884 5.2624 42.9619 10.4997 43.0498 11.1484C43.0867 11.4387 43.1797 11.7186 43.3225 11.9722C43.6182 12.4914 44.0701 12.7771 44.627 12.9283C44.536 13.0147 44.2532 13.325 44.167 13.3634C42.2605 12.513 42.475 10.8332 42.4733 9.04308L42.4791 5.69395L42.9958 5.15814Z" fill="#4877BA"/>
<path d="M45.0532 1.29065H46.7175L46.153 1.86848H45.3077C44.6984 2.55888 44.111 3.16886 43.4267 3.78369C43.2332 3.95747 42.5483 4.413 42.4674 4.503L42.4579 5.12933L41.9082 5.67894L41.8965 4.1691C43.0249 3.57587 44.2608 2.28799 45.0532 1.29065Z" fill="#4877BA"/>
<path d="M48.028 4.16901L48.0518 4.21011C47.9563 4.34399 47.6357 4.65414 47.5067 4.78501H46.168L46.756 4.17385C46.9973 4.19396 47.7811 4.19307 48.028 4.16901Z" fill="#4877BA"/>
<path d="M46.6957 10.8646C46.7643 10.9365 46.7492 11.256 47.0197 11.4268C47.3551 11.6387 47.6824 11.5933 48.042 11.5232C47.9011 11.6683 47.7222 11.829 47.5735 11.9696C47.5665 11.9771 47.5282 12.0159 47.5198 12.018C46.988 12.149 46.5204 11.705 46.2637 11.2911C46.404 11.1485 46.5529 11.0055 46.6957 10.8646Z" fill="#4877BA"/>
</g>
<defs>
<clipPath id="clip0_39_2694">
<rect width="70" height="15" fill="white"/>
</clipPath>
</defs>
</svg>
