<svg width="58" height="50" viewBox="0 0 58 50" fill="none" xmlns="http://www.w3.org/2000/svg">
<path d="M27.5858 9.23579C37.6871 8.50158 46.4731 16.0905 47.2155 26.1912C47.9577 36.2919 40.3761 45.084 30.2761 45.8347C20.1643 46.5862 11.3599 38.9938 10.6166 28.8815C9.87328 18.7691 17.4729 9.97091 27.5858 9.23579ZM33.694 36.6976C35.6734 36.6843 37.6539 36.6363 39.617 36.3855C40.8112 36.2329 43.1935 36.4655 43.3692 34.8501C43.4927 33.7152 43.5122 32.5103 43.5299 31.3669C43.5515 28.9636 43.5538 26.5601 43.5369 24.1568C43.5226 22.8953 43.4996 21.3943 43.3483 20.1287C43.2902 19.6425 42.7669 19.0806 42.2469 18.9881C40.0804 18.6027 37.9315 18.5209 35.7375 18.4522C31.9852 18.3172 28.2297 18.2876 24.4757 18.3633C24.3594 18.3662 23.9812 18.3694 23.8814 18.3859C21.6023 18.5291 19.3256 18.4642 17.0591 18.7953C16.0692 18.9209 14.5974 18.8671 14.4764 20.2024C14.048 24.9332 14.0721 29.6418 14.3889 34.377C14.5376 36.5994 16.5678 36.2176 18.3174 36.3846C23.4083 36.8709 28.5852 36.8253 33.694 36.6976Z" fill="#FCFBFB"/>
<path d="M28.6127 20.1165C32.7037 19.9524 36.1545 23.1332 36.3236 27.224C36.4926 31.3149 33.316 34.7695 29.2253 34.9434C25.1277 35.1176 21.666 31.9345 21.4967 27.8366C21.3274 23.7388 24.5147 20.2809 28.6127 20.1165Z" fill="#FCFBFB"/>
</svg>
